<svg width="24" height="24" viewBox="0 0 24 24" fill="none" xmlns="http://www.w3.org/2000/svg">
<path fill-rule="evenodd" clip-rule="evenodd" d="M17.303 5.19692C15.8915 3.81514 13.9918 3.046 12.0165 3.05652C10.0413 3.06704 8.14993 3.85637 6.75319 5.25311C5.35645 6.64985 4.56712 8.54121 4.5566 10.5165C4.54608 12.4917 5.31522 14.3914 6.697 15.8029C6.8377 15.9436 6.91674 16.1344 6.91674 16.3334C6.91674 16.5324 6.8377 16.7232 6.697 16.8639C6.5563 17.0046 6.36548 17.0837 6.1665 17.0837C5.96752 17.0837 5.7767 17.0046 5.636 16.8639C4.58945 15.8174 3.81716 14.5289 3.38753 13.1125C2.9579 11.6962 2.88419 10.1958 3.17294 8.74417C3.46168 7.29255 4.10397 5.93455 5.04291 4.79046C5.98185 3.64636 7.18845 2.75148 8.55584 2.18509C9.92323 1.6187 11.4092 1.39827 12.8821 1.54334C14.3551 1.6884 15.7695 2.19448 17.0001 3.01675C18.2307 3.83902 19.2396 4.95209 19.9373 6.25738C20.635 7.56266 21 9.01987 21 10.4999C21 10.6988 20.921 10.8896 20.7803 11.0303C20.6397 11.1709 20.4489 11.2499 20.25 11.2499C20.0511 11.2499 19.8603 11.1709 19.7197 11.0303C19.579 10.8896 19.5 10.6988 19.5 10.4999C19.5 8.57992 18.768 6.66092 17.303 5.19692ZM15.182 7.31792C14.3381 6.47401 13.1935 5.9999 12 5.9999C10.8065 5.9999 9.66192 6.47401 8.818 7.31792C7.97408 8.16184 7.49997 9.30644 7.49997 10.4999C7.49997 11.6934 7.97408 12.838 8.818 13.6819C8.89169 13.7506 8.95079 13.8334 8.99178 13.9254C9.03277 14.0174 9.05482 14.1167 9.05659 14.2174C9.05837 14.3181 9.03984 14.4181 9.00212 14.5115C8.9644 14.6049 8.90826 14.6897 8.83704 14.761C8.76582 14.8322 8.68099 14.8883 8.5876 14.926C8.49421 14.9638 8.39418 14.9823 8.29348 14.9805C8.19277 14.9787 8.09346 14.9567 8.00146 14.9157C7.90946 14.8747 7.82666 14.8156 7.758 14.7419C7.06012 14.0443 6.54509 13.1852 6.25854 12.241C5.97199 11.2967 5.92276 10.2963 6.11522 9.32845C6.30768 8.3606 6.73588 7.45516 7.36188 6.69235C7.98789 5.92953 8.79238 5.3329 9.70407 4.95529C10.6158 4.57769 11.6065 4.43078 12.5886 4.52758C13.5706 4.62438 14.5136 4.9619 15.334 5.51023C16.1545 6.05857 16.827 6.8008 17.292 7.67115C17.757 8.54151 18.0002 9.51313 18 10.4999C18 10.6988 17.921 10.8896 17.7803 11.0303C17.6397 11.1709 17.4489 11.2499 17.25 11.2499C17.0511 11.2499 16.8603 11.1709 16.7197 11.0303C16.579 10.8896 16.5 10.6988 16.5 10.4999C16.5 9.34692 16.06 8.19692 15.182 7.31792ZM11.548 8.63192C11.7 8.59116 11.861 8.59926 12.0082 8.65508C12.1554 8.7109 12.2812 8.8116 12.368 8.94292L17.596 16.8599C17.6778 16.9838 17.721 17.1291 17.7202 17.2775C17.7194 17.426 17.6745 17.5708 17.5913 17.6937C17.5081 17.8166 17.3903 17.9121 17.2529 17.968C17.1154 18.024 16.9644 18.0379 16.819 18.0079L14.722 17.5779L15.767 21.4779C15.8185 21.6702 15.7914 21.8751 15.6918 22.0474C15.5923 22.2197 15.4283 22.3455 15.236 22.3969C15.0437 22.4484 14.8389 22.4213 14.6665 22.3218C14.4942 22.2222 14.3685 22.0582 14.317 21.8659L13.273 17.9669L11.672 19.3869C11.561 19.4856 11.4233 19.5491 11.2762 19.5694C11.1291 19.5897 10.9793 19.5659 10.8458 19.501C10.7123 19.4361 10.601 19.3331 10.5261 19.2049C10.4512 19.0767 10.416 18.9291 10.425 18.7809L10.994 9.31092C11.0033 9.15378 11.0618 9.00354 11.1612 8.8815C11.2607 8.75945 11.396 8.67179 11.548 8.63092V8.63192Z" fill="#36424D"/>
</svg>
