<svg width="430" height="267" viewBox="0 0 430 267" fill="none" xmlns="http://www.w3.org/2000/svg">
<path d="M430 0H0V267H430V0Z" fill="#FBEBEB" fill-opacity="0.5"/>
<path opacity="0.7" d="M380.571 21.8298H217.557V124.996H380.571V21.8298Z" fill="#EDBDB9" fill-opacity="0.32"/>
<g opacity="0.03">
<path d="M63.4966 21.8298V231.648" stroke="#7F7F7F" stroke-width="1.29283"/>
<path d="M96.2393 21.8298V231.648" stroke="#7F7F7F" stroke-width="1.29283"/>
<path d="M128.981 21.8298V231.648" stroke="#7F7F7F" stroke-width="1.29283"/>
<path d="M161.723 21.8298V231.648" stroke="#7F7F7F" stroke-width="1.29283"/>
<path d="M194.466 21.8298V231.648" stroke="#7F7F7F" stroke-width="1.29283"/>
<path d="M259.95 21.8298V231.648" stroke="#7F7F7F" stroke-width="1.29283"/>
<path d="M325.435 21.8298V231.648" stroke="#7F7F7F" stroke-width="1.29283"/>
<path d="M390.918 21.8298V231.648" stroke="#7F7F7F" stroke-width="1.29283"/>
<path d="M358.177 21.8298V231.648" stroke="#7F7F7F" stroke-width="1.29283"/>
<path d="M292.692 21.8298V231.648" stroke="#7F7F7F" stroke-width="1.29283"/>
<path d="M63.1484 43.0906H390.57" stroke="#7F7F7F" stroke-width="1.29283"/>
<path d="M63.1484 22.1785H390.57" stroke="#7F7F7F" stroke-width="1.29283"/>
<path d="M63.1484 147.651H390.57" stroke="#7F7F7F" stroke-width="1.29283"/>
<path d="M63.1484 64.0027H390.57" stroke="#7F7F7F" stroke-width="1.29283"/>
<path d="M63.1484 168.563H390.57" stroke="#7F7F7F" stroke-width="1.29283"/>
<path d="M63.1484 84.9143H390.57" stroke="#7F7F7F" stroke-width="1.29283"/>
<path d="M63.1484 189.476H390.57" stroke="#7F7F7F" stroke-width="1.29283"/>
<path d="M63.1484 105.827H390.57" stroke="#7F7F7F" stroke-width="1.29283"/>
<path d="M63.1484 210.387H390.57" stroke="#7F7F7F" stroke-width="1.29283"/>
<path d="M63.1484 231.3H390.57" stroke="#7F7F7F" stroke-width="1.29283"/>
</g>
<path d="M173.333 76.423C175.064 76.423 176.468 75.0186 176.468 73.2862C176.468 71.5538 175.064 70.1494 173.333 70.1494C171.602 70.1494 170.198 71.5538 170.198 73.2862C170.198 75.0186 171.602 76.423 173.333 76.423Z" stroke="#D56057" stroke-width="1.29283"/>
<path d="M173.333 74.6811C174.102 74.6811 174.726 74.0569 174.726 73.287C174.726 72.517 174.102 71.8928 173.333 71.8928C172.563 71.8928 171.939 72.517 171.939 73.287C171.939 74.0569 172.563 74.6811 173.333 74.6811Z" fill="#D56057"/>
<path d="M165.764 87.7849C167.495 87.7849 168.899 86.3805 168.899 84.648C168.899 82.9156 167.495 81.5112 165.764 81.5112C164.032 81.5112 162.629 82.9156 162.629 84.648C162.629 86.3805 164.032 87.7849 165.764 87.7849Z" stroke="#D56057" stroke-width="1.29283"/>
<path d="M165.763 86.0427C166.532 86.0427 167.156 85.4185 167.156 84.6485C167.156 83.8786 166.532 83.2544 165.763 83.2544C164.993 83.2544 164.37 83.8786 164.37 84.6485C164.37 85.4185 164.993 86.0427 165.763 86.0427Z" fill="#D56057"/>
<path d="M146.571 71.4339C148.483 71.4339 150.033 69.8829 150.033 67.9698C150.033 66.0566 148.483 64.5056 146.571 64.5056C144.659 64.5056 143.109 66.0566 143.109 67.9698C143.109 69.8829 144.659 71.4339 146.571 71.4339Z" stroke="#D56057" stroke-width="1.42773"/>
<path d="M146.571 69.5092C147.421 69.5092 148.11 68.8199 148.11 67.9696C148.11 67.1192 147.421 66.4299 146.571 66.4299C145.721 66.4299 145.032 67.1192 145.032 67.9696C145.032 68.8199 145.721 69.5092 146.571 69.5092Z" fill="#D56057"/>
<path d="M181.267 36.7173C183.179 36.7173 184.729 35.1664 184.729 33.2532C184.729 31.34 183.179 29.7891 181.267 29.7891C179.355 29.7891 177.805 31.34 177.805 33.2532C177.805 35.1664 179.355 36.7173 181.267 36.7173Z" stroke="#D56057" stroke-width="1.42773"/>
<path d="M181.266 34.7929C182.116 34.7929 182.804 34.1035 182.804 33.2532C182.804 32.4029 182.116 31.7136 181.266 31.7136C180.416 31.7136 179.727 32.4029 179.727 33.2532C179.727 34.1035 180.416 34.7929 181.266 34.7929Z" fill="#D56057"/>
<path d="M272.105 128.874C274.017 128.874 275.567 127.323 275.567 125.409C275.567 123.496 274.017 121.945 272.105 121.945C270.193 121.945 268.643 123.496 268.643 125.409C268.643 127.323 270.193 128.874 272.105 128.874Z" stroke="#D56057" stroke-width="1.42773"/>
<path d="M272.104 126.949C272.953 126.949 273.642 126.26 273.642 125.409C273.642 124.559 272.953 123.87 272.104 123.87C271.254 123.87 270.565 124.559 270.565 125.409C270.565 126.26 271.254 126.949 272.104 126.949Z" fill="#D56057"/>
<path d="M243.087 61.9656C244.999 61.9656 246.549 60.4147 246.549 58.5015C246.549 56.5883 244.999 55.0374 243.087 55.0374C241.175 55.0374 239.625 56.5883 239.625 58.5015C239.625 60.4147 241.175 61.9656 243.087 61.9656Z" stroke="#D56057" stroke-width="1.42773"/>
<path d="M243.086 60.0409C243.936 60.0409 244.625 59.3516 244.625 58.5013C244.625 57.651 243.936 56.9617 243.086 56.9617C242.236 56.9617 241.547 57.651 241.547 58.5013C241.547 59.3516 242.236 60.0409 243.086 60.0409Z" fill="#D56057"/>
<path d="M343.286 73.7579C346.537 73.7579 349.172 71.1215 349.172 67.8692C349.172 64.6169 346.537 61.9805 343.286 61.9805C340.036 61.9805 337.401 64.6169 337.401 67.8692C337.401 71.1215 340.036 73.7579 343.286 73.7579Z" stroke="white" stroke-width="1.42773"/>
<path d="M343.286 70.3788C344.671 70.3788 345.794 69.2553 345.794 67.8693C345.794 66.4834 344.671 65.3599 343.286 65.3599C341.901 65.3599 340.778 66.4834 340.778 67.8693C340.778 69.2553 341.901 70.3788 343.286 70.3788Z" fill="white"/>
<path d="M246.872 114.356C248.784 114.356 250.334 112.805 250.334 110.892C250.334 108.978 248.784 107.427 246.872 107.427C244.96 107.427 243.41 108.978 243.41 110.892C243.41 112.805 244.96 114.356 246.872 114.356Z" stroke="#D56057" stroke-width="1.42773"/>
<path d="M246.871 112.431C247.72 112.431 248.409 111.742 248.409 110.892C248.409 110.041 247.72 109.352 246.871 109.352C246.021 109.352 245.332 110.041 245.332 110.892C245.332 111.742 246.021 112.431 246.871 112.431Z" fill="#D56057"/>
<path d="M330.14 96.6819C332.052 96.6819 333.602 95.131 333.602 93.2178C333.602 91.3046 332.052 89.7537 330.14 89.7537C328.228 89.7537 326.678 91.3046 326.678 93.2178C326.678 95.131 328.228 96.6819 330.14 96.6819Z" stroke="#D56057" stroke-width="1.42773"/>
<path d="M330.139 94.7575C330.989 94.7575 331.678 94.0682 331.678 93.2178C331.678 92.3675 330.989 91.6782 330.139 91.6782C329.289 91.6782 328.601 92.3675 328.601 93.2178C328.601 94.0682 329.289 94.7575 330.139 94.7575Z" fill="#D56057"/>
<path d="M299.86 115.618C301.772 115.618 303.322 114.067 303.322 112.154C303.322 110.241 301.772 108.69 299.86 108.69C297.948 108.69 296.398 110.241 296.398 112.154C296.398 114.067 297.948 115.618 299.86 115.618Z" stroke="#D56057" stroke-width="1.42773"/>
<path d="M299.86 113.694C300.71 113.694 301.399 113.004 301.399 112.154C301.399 111.304 300.71 110.615 299.86 110.615C299.01 110.615 298.321 111.304 298.321 112.154C298.321 113.004 299.01 113.694 299.86 113.694Z" fill="#D56057"/>
<path d="M369.881 101.1C371.793 101.1 373.343 99.5495 373.343 97.6363C373.343 95.7231 371.793 94.1721 369.881 94.1721C367.969 94.1721 366.419 95.7231 366.419 97.6363C366.419 99.5495 367.969 101.1 369.881 101.1Z" stroke="#D56057" stroke-width="1.42773"/>
<path d="M369.88 99.1759C370.73 99.1759 371.419 98.4866 371.419 97.6363C371.419 96.786 370.73 96.0967 369.88 96.0967C369.031 96.0967 368.342 96.786 368.342 97.6363C368.342 98.4866 369.031 99.1759 369.88 99.1759Z" fill="#D56057"/>
<path d="M360.419 85.9515C362.331 85.9515 363.881 84.4005 363.881 82.4873C363.881 80.5741 362.331 79.0232 360.419 79.0232C358.507 79.0232 356.957 80.5741 356.957 82.4873C356.957 84.4005 358.507 85.9515 360.419 85.9515Z" stroke="#D56057" stroke-width="1.42773"/>
<path d="M360.419 84.027C361.268 84.027 361.957 83.3377 361.957 82.4874C361.957 81.6371 361.268 80.9478 360.419 80.9478C359.569 80.9478 358.88 81.6371 358.88 82.4874C358.88 83.3377 359.569 84.027 360.419 84.027Z" fill="#D56057"/>
<path d="M367.989 127.611C369.901 127.611 371.451 126.06 371.451 124.147C371.451 122.234 369.901 120.683 367.989 120.683C366.077 120.683 364.527 122.234 364.527 124.147C364.527 126.06 366.077 127.611 367.989 127.611Z" stroke="#D56057" stroke-width="1.42773"/>
<path d="M367.988 125.687C368.838 125.687 369.527 124.997 369.527 124.147C369.527 123.297 368.838 122.607 367.988 122.607C367.138 122.607 366.449 123.297 366.449 124.147C366.449 124.997 367.138 125.687 367.988 125.687Z" fill="#D56057"/>
<path d="M269.581 187.576C271.493 187.576 273.043 186.025 273.043 184.112C273.043 182.198 271.493 180.647 269.581 180.647C267.669 180.647 266.119 182.198 266.119 184.112C266.119 186.025 267.669 187.576 269.581 187.576Z" stroke="#D56057" stroke-width="1.42773"/>
<path d="M269.581 185.651C270.43 185.651 271.119 184.962 271.119 184.111C271.119 183.261 270.43 182.572 269.581 182.572C268.731 182.572 268.042 183.261 268.042 184.111C268.042 184.962 268.731 185.651 269.581 185.651Z" fill="#D56057"/>
<path d="M258.227 159.803C260.139 159.803 261.689 158.252 261.689 156.338C261.689 154.425 260.139 152.874 258.227 152.874C256.315 152.874 254.765 154.425 254.765 156.338C254.765 158.252 256.315 159.803 258.227 159.803Z" stroke="#D56057" stroke-width="1.42773"/>
<path d="M258.226 157.878C259.075 157.878 259.764 157.189 259.764 156.338C259.764 155.488 259.075 154.799 258.226 154.799C257.376 154.799 256.687 155.488 256.687 156.338C256.687 157.189 257.376 157.878 258.226 157.878Z" fill="#D56057"/>
<path d="M172.435 114.356C174.347 114.356 175.897 112.805 175.897 110.892C175.897 108.978 174.347 107.427 172.435 107.427C170.523 107.427 168.973 108.978 168.973 110.892C168.973 112.805 170.523 114.356 172.435 114.356Z" stroke="#D56057" stroke-width="1.42773"/>
<path d="M172.434 112.431C173.284 112.431 173.973 111.742 173.973 110.892C173.973 110.041 173.284 109.352 172.434 109.352C171.584 109.352 170.896 110.041 170.896 110.892C170.896 111.742 171.584 112.431 172.434 112.431Z" fill="#D56057"/>
<path d="M220.005 104.476C221.917 104.476 223.467 102.925 223.467 101.012C223.467 99.0983 221.917 97.5474 220.005 97.5474C218.093 97.5474 216.543 99.0983 216.543 101.012C216.543 102.925 218.093 104.476 220.005 104.476Z" stroke="#D56057" stroke-width="1.42773"/>
<path d="M220.005 102.551C220.855 102.551 221.544 101.862 221.544 101.011C221.544 100.161 220.855 99.4717 220.005 99.4717C219.155 99.4717 218.466 100.161 218.466 101.011C218.466 101.862 219.155 102.551 220.005 102.551Z" fill="#D56057"/>
<path d="M190.729 120.037C192.641 120.037 194.191 118.486 194.191 116.573C194.191 114.659 192.641 113.108 190.729 113.108C188.817 113.108 187.267 114.659 187.267 116.573C187.267 118.486 188.817 120.037 190.729 120.037Z" stroke="#D56057" stroke-width="1.42773"/>
<path d="M190.728 118.112C191.578 118.112 192.267 117.423 192.267 116.573C192.267 115.722 191.578 115.033 190.728 115.033C189.878 115.033 189.189 115.722 189.189 116.573C189.189 117.423 189.878 118.112 190.728 118.112Z" fill="#D56057"/>
<path d="M171.173 102.994C173.085 102.994 174.635 101.443 174.635 99.5301C174.635 97.6169 173.085 96.0659 171.173 96.0659C169.261 96.0659 167.711 97.6169 167.711 99.5301C167.711 101.443 169.261 102.994 171.173 102.994Z" stroke="#D56057" stroke-width="1.42773"/>
<path d="M171.172 101.069C172.022 101.069 172.711 100.38 172.711 99.5299C172.711 98.6796 172.022 97.9902 171.172 97.9902C170.323 97.9902 169.634 98.6796 169.634 99.5299C169.634 100.38 170.323 101.069 171.172 101.069Z" fill="#D56057"/>
<path d="M178.112 101.732C180.024 101.732 181.574 100.181 181.574 98.2676C181.574 96.3544 180.024 94.8035 178.112 94.8035C176.2 94.8035 174.65 96.3544 174.65 98.2676C174.65 100.181 176.2 101.732 178.112 101.732Z" stroke="#D56057" stroke-width="1.42773"/>
<path d="M178.112 99.8073C178.962 99.8073 179.651 99.118 179.651 98.2677C179.651 97.4173 178.962 96.728 178.112 96.728C177.262 96.728 176.573 97.4173 176.573 98.2677C176.573 99.118 177.262 99.8073 178.112 99.8073Z" fill="#D56057"/>
<path d="M199.56 146.547C201.472 146.547 203.022 144.996 203.022 143.083C203.022 141.17 201.472 139.619 199.56 139.619C197.648 139.619 196.098 141.17 196.098 143.083C196.098 144.996 197.648 146.547 199.56 146.547Z" stroke="#D56057" stroke-width="1.42773"/>
<path d="M199.56 144.623C200.409 144.623 201.098 143.933 201.098 143.083C201.098 142.233 200.409 141.543 199.56 141.543C198.71 141.543 198.021 142.233 198.021 143.083C198.021 143.933 198.71 144.623 199.56 144.623Z" fill="#D56057"/>
<path d="M199.56 152.228C201.472 152.228 203.022 150.677 203.022 148.764C203.022 146.851 201.472 145.3 199.56 145.3C197.648 145.3 196.098 146.851 196.098 148.764C196.098 150.677 197.648 152.228 199.56 152.228Z" stroke="#D56057" stroke-width="1.42773"/>
<path d="M199.56 150.304C200.409 150.304 201.098 149.614 201.098 148.764C201.098 147.914 200.409 147.224 199.56 147.224C198.71 147.224 198.021 147.914 198.021 148.764C198.021 149.614 198.71 150.304 199.56 150.304Z" fill="#D56057"/>
<path d="M197.668 154.753C199.58 154.753 201.13 153.202 201.13 151.289C201.13 149.376 199.58 147.825 197.668 147.825C195.756 147.825 194.206 149.376 194.206 151.289C194.206 153.202 195.756 154.753 197.668 154.753Z" stroke="#D56057" stroke-width="1.42773"/>
<path d="M197.667 152.829C198.517 152.829 199.206 152.139 199.206 151.289C199.206 150.439 198.517 149.749 197.667 149.749C196.817 149.749 196.128 150.439 196.128 151.289C196.128 152.139 196.817 152.829 197.667 152.829Z" fill="#D56057"/>
<path d="M194.514 142.129C196.426 142.129 197.976 140.578 197.976 138.665C197.976 136.752 196.426 135.201 194.514 135.201C192.602 135.201 191.052 136.752 191.052 138.665C191.052 140.578 192.602 142.129 194.514 142.129Z" stroke="#D56057" stroke-width="1.42773"/>
<path d="M194.513 140.204C195.363 140.204 196.052 139.515 196.052 138.665C196.052 137.814 195.363 137.125 194.513 137.125C193.663 137.125 192.975 137.814 192.975 138.665C192.975 139.515 193.663 140.204 194.513 140.204Z" fill="#D56057"/>
<path d="M209.023 156.015C210.935 156.015 212.485 154.464 212.485 152.551C212.485 150.638 210.935 149.087 209.023 149.087C207.111 149.087 205.561 150.638 205.561 152.551C205.561 154.464 207.111 156.015 209.023 156.015Z" stroke="#D56057" stroke-width="1.42773"/>
<path d="M209.022 154.091C209.872 154.091 210.561 153.402 210.561 152.551C210.561 151.701 209.872 151.012 209.022 151.012C208.172 151.012 207.483 151.701 207.483 152.551C207.483 153.402 208.172 154.091 209.022 154.091Z" fill="#D56057"/>
<path d="M210.284 171.164C212.196 171.164 213.746 169.613 213.746 167.7C213.746 165.787 212.196 164.236 210.284 164.236C208.372 164.236 206.822 165.787 206.822 167.7C206.822 169.613 208.372 171.164 210.284 171.164Z" stroke="#D56057" stroke-width="1.42773"/>
<path d="M210.284 169.24C211.134 169.24 211.822 168.551 211.822 167.7C211.822 166.85 211.134 166.161 210.284 166.161C209.434 166.161 208.745 166.85 208.745 167.7C208.745 168.551 209.434 169.24 210.284 169.24Z" fill="#D56057"/>
<path d="M215.962 149.072C217.874 149.072 219.424 147.521 219.424 145.608C219.424 143.695 217.874 142.144 215.962 142.144C214.05 142.144 212.5 143.695 212.5 145.608C212.5 147.521 214.05 149.072 215.962 149.072Z" stroke="#D56057" stroke-width="1.42773"/>
<path d="M215.961 147.148C216.81 147.148 217.499 146.458 217.499 145.608C217.499 144.758 216.81 144.068 215.961 144.068C215.111 144.068 214.422 144.758 214.422 145.608C214.422 146.458 215.111 147.148 215.961 147.148Z" fill="#D56057"/>
<path d="M214.7 129.505C216.612 129.505 218.162 127.954 218.162 126.041C218.162 124.127 216.612 122.576 214.7 122.576C212.788 122.576 211.238 124.127 211.238 126.041C211.238 127.954 212.788 129.505 214.7 129.505Z" stroke="#D56057" stroke-width="1.42773"/>
<path d="M214.699 127.58C215.549 127.58 216.238 126.891 216.238 126.041C216.238 125.19 215.549 124.501 214.699 124.501C213.85 124.501 213.161 125.19 213.161 126.041C213.161 126.891 213.85 127.58 214.699 127.58Z" fill="#D56057"/>
<path d="M235.517 151.597C237.429 151.597 238.979 150.046 238.979 148.133C238.979 146.22 237.429 144.669 235.517 144.669C233.605 144.669 232.055 146.22 232.055 148.133C232.055 150.046 233.605 151.597 235.517 151.597Z" stroke="#D56057" stroke-width="1.42773"/>
<path d="M235.516 149.672C236.366 149.672 237.055 148.983 237.055 148.133C237.055 147.283 236.366 146.593 235.516 146.593C234.666 146.593 233.978 147.283 233.978 148.133C233.978 148.983 234.666 149.672 235.516 149.672Z" fill="#D56057"/>
<path d="M270.843 148.441C272.755 148.441 274.305 146.89 274.305 144.977C274.305 143.064 272.755 141.513 270.843 141.513C268.931 141.513 267.381 143.064 267.381 144.977C267.381 146.89 268.931 148.441 270.843 148.441Z" stroke="#D56057" stroke-width="1.42773"/>
<path d="M270.842 146.516C271.692 146.516 272.381 145.827 272.381 144.977C272.381 144.126 271.692 143.437 270.842 143.437C269.993 143.437 269.304 144.126 269.304 144.977C269.304 145.827 269.993 146.516 270.842 146.516Z" fill="#D56057"/>
<path d="M254.442 171.795C256.354 171.795 257.904 170.245 257.904 168.331C257.904 166.418 256.354 164.867 254.442 164.867C252.529 164.867 250.979 166.418 250.979 168.331C250.979 170.245 252.529 171.795 254.442 171.795Z" stroke="#D56057" stroke-width="1.42773"/>
<path d="M254.441 169.871C255.291 169.871 255.98 169.182 255.98 168.331C255.98 167.481 255.291 166.792 254.441 166.792C253.591 166.792 252.902 167.481 252.902 168.331C252.902 169.182 253.591 169.871 254.441 169.871Z" fill="#D56057"/>
<path d="M226.055 183.788C227.967 183.788 229.517 182.237 229.517 180.324C229.517 178.411 227.967 176.86 226.055 176.86C224.143 176.86 222.593 178.411 222.593 180.324C222.593 182.237 224.143 183.788 226.055 183.788Z" stroke="#D56057" stroke-width="1.42773"/>
<path d="M226.054 181.864C226.904 181.864 227.593 181.175 227.593 180.324C227.593 179.474 226.904 178.785 226.054 178.785C225.204 178.785 224.516 179.474 224.516 180.324C224.516 181.175 225.204 181.864 226.054 181.864Z" fill="#D56057"/>
<path d="M238.671 213.455C240.583 213.455 242.133 211.904 242.133 209.991C242.133 208.078 240.583 206.527 238.671 206.527C236.759 206.527 235.209 208.078 235.209 209.991C235.209 211.904 236.759 213.455 238.671 213.455Z" stroke="#D56057" stroke-width="1.42773"/>
<path d="M238.67 211.531C239.52 211.531 240.209 210.841 240.209 209.991C240.209 209.141 239.52 208.451 238.67 208.451C237.821 208.451 237.132 209.141 237.132 209.991C237.132 210.841 237.821 211.531 238.67 211.531Z" fill="#D56057"/>
<path d="M179.374 163.59C181.286 163.59 182.836 162.039 182.836 160.126C182.836 158.213 181.286 156.662 179.374 156.662C177.462 156.662 175.912 158.213 175.912 160.126C175.912 162.039 177.462 163.59 179.374 163.59Z" stroke="#D56057" stroke-width="1.42773"/>
<path d="M179.374 161.665C180.223 161.665 180.912 160.976 180.912 160.126C180.912 159.275 180.223 158.586 179.374 158.586C178.524 158.586 177.835 159.275 177.835 160.126C177.835 160.976 178.524 161.665 179.374 161.665Z" fill="#D56057"/>
<path d="M181.898 148.441C183.81 148.441 185.36 146.89 185.36 144.977C185.36 143.064 183.81 141.513 181.898 141.513C179.986 141.513 178.436 143.064 178.436 144.977C178.436 146.89 179.986 148.441 181.898 148.441Z" stroke="#D56057" stroke-width="1.42773"/>
<path d="M181.897 146.516C182.746 146.516 183.435 145.827 183.435 144.977C183.435 144.126 182.746 143.437 181.897 143.437C181.047 143.437 180.358 144.126 180.358 144.977C180.358 145.827 181.047 146.516 181.897 146.516Z" fill="#D56057"/>
<path d="M163.604 147.179C165.516 147.179 167.066 145.628 167.066 143.714C167.066 141.801 165.516 140.25 163.604 140.25C161.692 140.25 160.142 141.801 160.142 143.714C160.142 145.628 161.692 147.179 163.604 147.179Z" stroke="#D56057" stroke-width="1.42773"/>
<path d="M163.603 145.254C164.453 145.254 165.142 144.565 165.142 143.714C165.142 142.864 164.453 142.175 163.603 142.175C162.753 142.175 162.064 142.864 162.064 143.714C162.064 144.565 162.753 145.254 163.603 145.254Z" fill="#D56057"/>
<path d="M147.833 138.342C149.745 138.342 151.295 136.791 151.295 134.877C151.295 132.964 149.745 131.413 147.833 131.413C145.921 131.413 144.371 132.964 144.371 134.877C144.371 136.791 145.921 138.342 147.833 138.342Z" stroke="#D56057" stroke-width="1.42773"/>
<path d="M147.833 136.417C148.682 136.417 149.371 135.728 149.371 134.878C149.371 134.027 148.682 133.338 147.833 133.338C146.983 133.338 146.294 134.027 146.294 134.878C146.294 135.728 146.983 136.417 147.833 136.417Z" fill="#D56057"/>
<path d="M155.403 138.973C157.315 138.973 158.865 137.422 158.865 135.509C158.865 133.595 157.315 132.044 155.403 132.044C153.491 132.044 151.941 133.595 151.941 135.509C151.941 137.422 153.491 138.973 155.403 138.973Z" stroke="#D56057" stroke-width="1.42773"/>
<path d="M155.402 137.048C156.252 137.048 156.941 136.359 156.941 135.509C156.941 134.658 156.252 133.969 155.402 133.969C154.552 133.969 153.863 134.658 153.863 135.509C153.863 136.359 154.552 137.048 155.402 137.048Z" fill="#D56057"/>
<path d="M78.443 148.441C80.355 148.441 81.905 146.89 81.905 144.977C81.905 143.064 80.355 141.513 78.443 141.513C76.531 141.513 74.981 143.064 74.981 144.977C74.981 146.89 76.531 148.441 78.443 148.441Z" stroke="#D56057" stroke-width="1.42773"/>
<path d="M78.443 146.516C79.2928 146.516 79.9816 145.827 79.9816 144.977C79.9816 144.126 79.2928 143.437 78.443 143.437C77.5932 143.437 76.9043 144.126 76.9043 144.977C76.9043 145.827 77.5932 146.516 78.443 146.516Z" fill="#D56057"/>
<path d="M102.414 207.774C104.326 207.774 105.876 206.223 105.876 204.31C105.876 202.397 104.326 200.846 102.414 200.846C100.502 200.846 98.9521 202.397 98.9521 204.31C98.9521 206.223 100.502 207.774 102.414 207.774Z" stroke="#D56057" stroke-width="1.42773"/>
<path d="M102.414 205.85C103.263 205.85 103.952 205.16 103.952 204.31C103.952 203.46 103.263 202.771 102.414 202.771C101.564 202.771 100.875 203.46 100.875 204.31C100.875 205.16 101.564 205.85 102.414 205.85Z" fill="#D56057"/>
<path d="M144.048 209.037C145.96 209.037 147.51 207.486 147.51 205.573C147.51 203.659 145.96 202.108 144.048 202.108C142.136 202.108 140.586 203.659 140.586 205.573C140.586 207.486 142.136 209.037 144.048 209.037Z" stroke="#D56057" stroke-width="1.42773"/>
<path d="M144.047 207.112C144.897 207.112 145.586 206.423 145.586 205.573C145.586 204.722 144.897 204.033 144.047 204.033C143.198 204.033 142.509 204.722 142.509 205.573C142.509 206.423 143.198 207.112 144.047 207.112Z" fill="#D56057"/>
<path d="M173.696 200.2C175.608 200.2 177.158 198.649 177.158 196.736C177.158 194.822 175.608 193.271 173.696 193.271C171.784 193.271 170.234 194.822 170.234 196.736C170.234 198.649 171.784 200.2 173.696 200.2Z" stroke="#D56057" stroke-width="1.42773"/>
<path d="M173.696 198.275C174.546 198.275 175.235 197.586 175.235 196.736C175.235 195.885 174.546 195.196 173.696 195.196C172.846 195.196 172.157 195.885 172.157 196.736C172.157 197.586 172.846 198.275 173.696 198.275Z" fill="#D56057"/>
<path d="M189.467 169.902C191.379 169.902 192.929 168.351 192.929 166.438C192.929 164.525 191.379 162.974 189.467 162.974C187.555 162.974 186.005 164.525 186.005 166.438C186.005 168.351 187.555 169.902 189.467 169.902Z" stroke="#D56057" stroke-width="1.42773"/>
<path d="M189.466 167.977C190.316 167.977 191.005 167.288 191.005 166.438C191.005 165.587 190.316 164.898 189.466 164.898C188.617 164.898 187.928 165.587 187.928 166.438C187.928 167.288 188.617 167.977 189.466 167.977Z" fill="#D56057"/>
<path d="M199.808 177.619C201.72 177.619 203.27 176.068 203.27 174.155C203.27 172.242 201.72 170.691 199.808 170.691C197.896 170.691 196.346 172.242 196.346 174.155C196.346 176.068 197.896 177.619 199.808 177.619Z" stroke="#D56057" stroke-width="1.42773"/>
<path d="M199.807 175.694C200.657 175.694 201.346 175.005 201.346 174.155C201.346 173.305 200.657 172.615 199.807 172.615C198.957 172.615 198.269 173.305 198.269 174.155C198.269 175.005 198.957 175.694 199.807 175.694Z" fill="#D56057"/>
<path d="M189.467 175.583C191.379 175.583 192.929 174.032 192.929 172.119C192.929 170.205 191.379 168.655 189.467 168.655C187.555 168.655 186.005 170.205 186.005 172.119C186.005 174.032 187.555 175.583 189.467 175.583Z" stroke="#D56057" stroke-width="1.42773"/>
<path d="M189.466 173.658C190.316 173.658 191.005 172.969 191.005 172.119C191.005 171.268 190.316 170.579 189.466 170.579C188.617 170.579 187.928 171.268 187.928 172.119C187.928 172.969 188.617 173.658 189.466 173.658Z" fill="#D56057"/>
<path d="M198.298 215.349C200.21 215.349 201.76 213.798 201.76 211.885C201.76 209.971 200.21 208.42 198.298 208.42C196.386 208.42 194.836 209.971 194.836 211.885C194.836 213.798 196.386 215.349 198.298 215.349Z" stroke="#D56057" stroke-width="1.42773"/>
<path d="M198.298 213.424C199.148 213.424 199.837 212.735 199.837 211.885C199.837 211.034 199.148 210.345 198.298 210.345C197.448 210.345 196.759 211.034 196.759 211.885C196.759 212.735 197.448 213.424 198.298 213.424Z" fill="#D56057"/>
<path d="M94.8443 152.859C96.7564 152.859 98.3064 151.308 98.3064 149.395C98.3064 147.482 96.7564 145.931 94.8443 145.931C92.9323 145.931 91.3823 147.482 91.3823 149.395C91.3823 151.308 92.9323 152.859 94.8443 152.859Z" stroke="#D56057" stroke-width="1.42773"/>
<path d="M94.8434 150.935C95.6931 150.935 96.382 150.245 96.382 149.395C96.382 148.545 95.6931 147.855 94.8434 147.855C93.9936 147.855 93.3047 148.545 93.3047 149.395C93.3047 150.245 93.9936 150.935 94.8434 150.935Z" fill="#D56057"/>
<path d="M98.629 154.753C100.541 154.753 102.091 153.202 102.091 151.289C102.091 149.376 100.541 147.825 98.629 147.825C96.717 147.825 95.167 149.376 95.167 151.289C95.167 153.202 96.717 154.753 98.629 154.753Z" stroke="#D56057" stroke-width="1.42773"/>
<path d="M98.6285 152.829C99.4783 152.829 100.167 152.139 100.167 151.289C100.167 150.439 99.4783 149.749 98.6285 149.749C97.7787 149.749 97.0898 150.439 97.0898 151.289C97.0898 152.139 97.7787 152.829 98.6285 152.829Z" fill="#D56057"/>
</svg>
