<svg width="307" height="88" viewBox="0 0 307 88" fill="none" xmlns="http://www.w3.org/2000/svg">
<path d="M291.86 0H15.1405C6.77864 0 0 6.77864 0 15.1405V72.7037C0 81.0656 6.77864 87.8442 15.1405 87.8442H291.86C300.222 87.8442 307 81.0656 307 72.7037V15.1405C307 6.77864 300.222 0 291.86 0Z" fill="white"/>
<path d="M76.2006 19.8748H19.9692C18.7433 19.8748 17.7495 20.8685 17.7495 22.0944C17.7495 23.3203 18.7433 24.3141 19.9692 24.3141H76.2006C77.4265 24.3141 78.4203 23.3203 78.4203 22.0944C78.4203 20.8685 77.4265 19.8748 76.2006 19.8748Z" fill="#D9D9D9" fill-opacity="0.8"/>
<path d="M46.6051 28.7537H19.9692C18.7433 28.7537 17.7495 29.7474 17.7495 30.9733C17.7495 32.1992 18.7433 33.193 19.9692 33.193H46.6051C47.831 33.193 48.8248 32.1992 48.8248 30.9733C48.8248 29.7474 47.831 28.7537 46.6051 28.7537Z" fill="#D9D9D9" fill-opacity="0.5"/>
<path d="M25.5 49.8828V64.7079H22.8144V52.4963H22.7275L19.2602 54.7114V52.25L22.9447 49.8828H25.5ZM28.6527 64.7079V62.7681L33.7996 57.7223C34.2918 57.225 34.702 56.7839 35.0301 56.3972C35.3583 56.0113 35.6044 55.6371 35.7685 55.2756C35.9326 54.914 36.0146 54.5272 36.0146 54.1171C36.0146 53.6489 35.9085 53.2485 35.6961 52.916C35.4838 52.5777 35.1918 52.3169 34.8202 52.1337C34.4487 51.9505 34.0264 51.8584 33.5534 51.8584C33.066 51.8584 32.6389 51.9602 32.2722 52.1628C31.9053 52.3606 31.6206 52.6427 31.4179 53.0101C31.2201 53.3765 31.1212 53.8137 31.1212 54.3197H28.5658C28.5658 53.3794 28.7806 52.5612 29.2101 51.8662C29.6396 51.1711 30.2308 50.6331 30.9836 50.2521C31.7413 49.8702 32.6099 49.6802 33.5896 49.6802C34.5837 49.6802 35.4572 49.8653 36.2101 50.2376C36.9629 50.6089 37.5469 51.1178 37.9619 51.7644C38.3817 52.411 38.5917 53.1497 38.5917 53.9795C38.5917 54.5349 38.4855 55.0797 38.2732 55.6158C38.0609 56.1519 37.6868 56.7452 37.1512 57.3966C36.6203 58.0481 35.8747 58.8371 34.9144 59.7639L32.359 62.3629V62.4637H38.8161V64.7079H28.6527Z" fill="black" fill-opacity="0.9"/>
<path d="M49.5799 65.5075L45.8352 59.0212H53.3246L49.5799 65.5075Z" fill="#E31717"/>
<path d="M60.1799 65.172C59.6114 65.172 59.1059 65.0741 58.6637 64.8792C58.2241 64.6844 57.8766 64.4139 57.6213 64.0659C57.3659 63.7189 57.2304 63.3175 57.2146 62.8619H58.6992C58.7124 63.08 58.7847 63.271 58.9164 63.4338C59.048 63.5948 59.2231 63.7198 59.4415 63.809C59.66 63.8992 59.9048 63.9438 60.1759 63.9438C60.4655 63.9438 60.7222 63.8933 60.9459 63.7935C61.1697 63.6907 61.3447 63.5482 61.4711 63.367C61.5974 63.1857 61.6593 62.9763 61.6566 62.7397C61.6593 62.4945 61.5961 62.2783 61.4671 62.0922C61.3381 61.9051 61.1512 61.7587 60.9065 61.6531C60.6642 61.5484 60.372 61.495 60.0298 61.495H59.3152V60.3667H60.0298C60.3116 60.3667 60.5577 60.3172 60.7682 60.2203C60.9814 60.1224 61.1486 59.9857 61.2697 59.8092C61.3908 59.6309 61.45 59.4234 61.4474 59.1898C61.45 58.961 61.3986 58.7623 61.2934 58.5936C61.1907 58.422 61.0446 58.2892 60.8551 58.1942C60.6682 58.1002 60.4484 58.0527 60.1957 58.0527C59.9483 58.0527 59.7193 58.0973 59.5087 58.1865C59.298 58.2766 59.1283 58.4036 58.9993 58.5694C58.8703 58.7332 58.8019 58.9281 58.794 59.1539H57.3844C57.3949 58.7012 57.5252 58.3038 57.7753 57.9616C58.028 57.6165 58.3649 57.3479 58.7861 57.156C59.2073 56.9611 59.6798 56.8642 60.2036 56.8642C60.7432 56.8642 61.2117 56.965 61.6093 57.1676C62.0094 57.3683 62.3187 57.6378 62.5371 57.9771C62.7556 58.3173 62.8649 58.6925 62.8649 59.1025C62.8675 59.5582 62.7332 59.9401 62.4622 60.2474C62.1937 60.5557 61.8409 60.7573 61.404 60.8523V60.9153C61.9725 60.9939 62.4082 61.2042 62.7109 61.5464C63.0162 61.8867 63.1676 62.3093 63.165 62.8144C63.165 63.2671 63.036 63.6723 62.778 64.03C62.5227 64.3858 62.1699 64.665 61.7198 64.8676C61.2723 65.0702 60.759 65.172 60.1799 65.172ZM67.4224 65.172C66.8539 65.172 66.3484 65.0741 65.9062 64.8792C65.4665 64.6844 65.1191 64.4139 64.8638 64.0659C64.6084 63.7189 64.4729 63.3175 64.4571 62.8619H65.9417C65.9548 63.08 66.0273 63.271 66.1589 63.4338C66.2905 63.5948 66.4655 63.7198 66.684 63.809C66.9025 63.8992 67.1473 63.9438 67.4184 63.9438C67.708 63.9438 67.9647 63.8933 68.1884 63.7935C68.4122 63.6907 68.5872 63.5482 68.7136 63.367C68.8399 63.1857 68.9017 62.9763 68.8991 62.7397C68.9017 62.4945 68.8386 62.2783 68.7096 62.0922C68.5807 61.9051 68.3938 61.7587 68.1489 61.6531C67.9067 61.5484 67.6146 61.495 67.2724 61.495H66.5577V60.3667H67.2724C67.5541 60.3667 67.8001 60.3172 68.0107 60.2203C68.2239 60.1224 68.391 59.9857 68.5122 59.8092C68.6333 59.6309 68.6925 59.4234 68.6898 59.1898C68.6925 58.961 68.6411 58.7623 68.5359 58.5936C68.4332 58.422 68.2871 58.2892 68.0976 58.1942C67.9107 58.1002 67.6909 58.0527 67.4382 58.0527C67.1907 58.0527 66.9618 58.0973 66.7512 58.1865C66.5406 58.2766 66.3708 58.4036 66.2418 58.5694C66.1128 58.7332 66.0444 58.9281 66.0365 59.1539H64.6268C64.6374 58.7012 64.7677 58.3038 65.0178 57.9616C65.2704 57.6165 65.6074 57.3479 66.0286 57.156C66.4497 56.9611 66.9223 56.8642 67.4461 56.8642C67.9857 56.8642 68.4542 56.965 68.8517 57.1676C69.2519 57.3683 69.5611 57.6378 69.7796 57.9771C69.9981 58.3173 70.1074 58.6925 70.1074 59.1025C70.11 59.5582 69.9757 59.9401 69.7046 60.2474C69.4362 60.5557 69.0834 60.7573 68.6464 60.8523V60.9153C69.215 60.9939 69.6507 61.2042 69.9533 61.5464C70.2587 61.8867 70.4101 62.3093 70.4074 62.8144C70.4074 63.2671 70.2785 63.6723 70.0205 64.03C69.7652 64.3858 69.4124 64.665 68.9623 64.8676C68.5148 65.0702 68.0015 65.172 67.4224 65.172ZM76.0866 63.5444V63.1188C76.0866 62.8047 76.1525 62.5168 76.2833 62.2541C76.4181 61.9904 76.6129 61.7781 76.8679 61.6182C77.1238 61.4572 77.4331 61.3768 77.7956 61.3768C78.1698 61.3768 78.4829 61.4572 78.7359 61.6182C78.9889 61.7762 79.1789 61.9865 79.3079 62.2492C79.4397 62.5129 79.5056 62.8028 79.5056 63.1188V63.5444C79.5056 63.8584 79.4397 64.1464 79.3079 64.4091C79.177 64.6727 78.9831 64.885 78.7282 65.045C78.4752 65.2059 78.165 65.2864 77.7956 65.2864C77.4272 65.2864 77.1151 65.2059 76.8601 65.045C76.6052 64.885 76.4113 64.6727 76.2795 64.4091C76.1505 64.1464 76.0866 63.8584 76.0866 63.5444ZM77.117 63.1188V63.5444C77.117 63.7528 77.1665 63.9438 77.2673 64.1173C77.3671 64.2908 77.5436 64.378 77.7956 64.378C78.0515 64.378 78.226 64.2927 78.321 64.1212C78.4189 63.9476 78.4674 63.7557 78.4674 63.5444V63.1188C78.4674 62.9075 78.4209 62.7155 78.3288 62.542C78.2367 62.3656 78.0593 62.2774 77.7956 62.2774C77.5484 62.2774 77.3739 62.3656 77.2712 62.542C77.1684 62.7155 77.117 62.9075 77.117 63.1188ZM71.9763 58.9174V58.4909C71.9763 58.1748 72.0432 57.885 72.177 57.6223C72.3117 57.3586 72.5065 57.1482 72.7615 56.9902C73.0174 56.8293 73.3267 56.7498 73.6892 56.7498C74.0605 56.7498 74.3726 56.8293 74.6257 56.9902C74.8806 57.1482 75.0726 57.3586 75.2015 57.6223C75.3304 57.885 75.3954 58.1748 75.3954 58.4909V58.9174C75.3954 59.2334 75.3294 59.5223 75.1976 59.786C75.0687 60.0467 74.8767 60.2561 74.6218 60.4132C74.3659 60.5712 74.0557 60.6507 73.6892 60.6507C73.3189 60.6507 73.0048 60.5712 72.7499 60.4132C72.4969 60.2561 72.3049 60.0448 72.1731 59.7821C72.0422 59.5184 71.9763 59.2305 71.9763 58.9174ZM73.0145 58.4909V58.9174C73.0145 59.1278 73.063 59.3197 73.1609 59.4932C73.2607 59.6648 73.4372 59.7501 73.6892 59.7501C73.9422 59.7501 74.1158 59.6648 74.2108 59.4932C74.3087 59.3197 74.3571 59.1278 74.3571 58.9174V58.4909C74.3571 58.2805 74.3106 58.0876 74.2185 57.9141C74.1264 57.7376 73.95 57.6494 73.6892 57.6494C73.4391 57.6494 73.2646 57.7376 73.1648 57.9141C73.064 58.0905 73.0145 58.2824 73.0145 58.4909ZM72.4261 65.0605L77.9856 56.9747H78.9725L73.4129 65.0605H72.4261Z" fill="#E31717"/>
<path d="M102.46 15.8093V72.0346" stroke="#D5D5D5" stroke-opacity="0.5" stroke-width="0.96695"/>
<path d="M177.914 19.0817H125.561C124.335 19.0817 123.341 20.0755 123.341 21.3014C123.341 22.5273 124.335 23.5211 125.561 23.5211H177.914C179.14 23.5211 180.134 22.5273 180.134 21.3014C180.134 20.0755 179.14 19.0817 177.914 19.0817Z" fill="#D9D9D9" fill-opacity="0.8"/>
<path d="M171.585 27.9606H125.561C124.335 27.9606 123.341 28.9544 123.341 30.1803C123.341 31.4062 124.335 32.4 125.561 32.4H171.585C172.81 32.4 173.804 31.4062 173.804 30.1803C173.804 28.9544 172.81 27.9606 171.585 27.9606Z" fill="#D9D9D9" fill-opacity="0.5"/>
<path d="M125.201 63.9149L131.506 51.4358V51.334H124.188V49.0898H134.286V51.3844L127.988 63.9149H125.201Z" fill="black" fill-opacity="0.9"/>
<path d="M144.154 66.3005L140.41 59.8142H147.899L144.154 66.3005Z" fill="#E31717"/>
<path d="M151.894 65.8535V64.7959L154.701 62.0438C154.97 61.7723 155.194 61.5319 155.373 61.3206C155.551 61.1102 155.686 60.9067 155.775 60.7089C155.865 60.5111 155.91 60.3008 155.91 60.0768C155.91 59.8219 155.852 59.6038 155.736 59.4215C155.62 59.2373 155.461 59.0958 155.258 58.995C155.056 58.8951 154.825 58.8457 154.567 58.8457C154.302 58.8457 154.068 58.901 153.868 59.0115C153.669 59.1191 153.513 59.2732 153.402 59.4729C153.294 59.6736 153.24 59.9111 153.24 60.1874H151.847C151.847 59.6745 151.963 59.2286 152.198 58.8496C152.433 58.4705 152.754 58.1768 153.166 57.9684C153.578 57.7609 154.053 57.6572 154.587 57.6572C155.13 57.6572 155.606 57.758 156.017 57.9606C156.427 58.1632 156.746 58.4415 156.971 58.7943C157.201 59.1472 157.316 59.5495 157.316 60.0022C157.316 60.3047 157.257 60.6023 157.142 60.895C157.026 61.1868 156.822 61.5106 156.529 61.8664C156.24 62.2212 155.833 62.6516 155.31 63.1566L153.916 64.5749V64.6301H157.438V65.8535H151.894ZM159.096 65.8535L162.535 59.0464V58.9911H158.543V57.7677H164.051V59.0192L160.616 65.8535H159.096ZM169.649 64.3374V63.9108C169.649 63.5977 169.715 63.3098 169.847 63.0461C169.981 62.7834 170.176 62.5711 170.432 62.4112C170.687 62.2502 170.996 62.1698 171.359 62.1698C171.733 62.1698 172.046 62.2502 172.299 62.4112C172.552 62.5692 172.743 62.7795 172.872 63.0423C173.003 63.3059 173.068 63.5958 173.068 63.9108V64.3374C173.068 64.6505 173.003 64.9394 172.872 65.2021C172.74 65.4658 172.546 65.6771 172.291 65.838C172.038 65.9989 171.728 66.0794 171.359 66.0794C170.991 66.0794 170.679 65.9989 170.423 65.838C170.168 65.6771 169.974 65.4658 169.843 65.2021C169.714 64.9394 169.649 64.6505 169.649 64.3374ZM170.68 63.9108V64.3374C170.68 64.5458 170.73 64.7368 170.83 64.9103C170.93 65.0838 171.106 65.1711 171.359 65.1711C171.614 65.1711 171.79 65.0848 171.884 64.9142C171.982 64.7406 172.03 64.5487 172.03 64.3374V63.9108C172.03 63.7005 171.985 63.5085 171.892 63.335C171.8 63.1586 171.622 63.0704 171.359 63.0704C171.111 63.0704 170.937 63.1586 170.834 63.335C170.731 63.5085 170.68 63.7005 170.68 63.9108ZM165.539 59.7104V59.2839C165.539 58.9679 165.606 58.678 165.741 58.4153C165.874 58.1516 166.069 57.9413 166.325 57.7832C166.58 57.6223 166.889 57.5418 167.253 57.5418C167.624 57.5418 167.935 57.6223 168.188 57.7832C168.443 57.9413 168.636 58.1516 168.765 58.4153C168.894 58.678 168.958 58.9679 168.958 59.2839V59.7104C168.958 60.0255 168.892 60.3153 168.761 60.579C168.632 60.8398 168.439 61.0482 168.184 61.2062C167.93 61.3642 167.618 61.4437 167.253 61.4437C166.882 61.4437 166.568 61.3642 166.313 61.2062C166.061 61.0482 165.868 60.8378 165.737 60.5751C165.605 60.3114 165.539 60.0235 165.539 59.7104ZM166.577 59.2839V59.7104C166.577 59.9208 166.626 60.1127 166.724 60.2862C166.823 60.4578 167 60.5431 167.253 60.5431C167.505 60.5431 167.679 60.4578 167.773 60.2862C167.871 60.1127 167.92 59.9208 167.92 59.7104V59.2839C167.92 59.0735 167.874 58.8806 167.782 58.7071C167.689 58.5307 167.514 58.4424 167.253 58.4424C167.003 58.4424 166.827 58.5307 166.727 58.7071C166.628 58.8835 166.577 59.0755 166.577 59.2839ZM165.989 65.8535L171.548 57.7677H172.536L166.977 65.8535H165.989Z" fill="#E31717"/>
<path d="M201.984 15.8093V72.0346" stroke="#D5D5D5" stroke-opacity="0.5" stroke-width="0.96695"/>
<path d="M271.622 19.0817H225.085C223.859 19.0817 222.865 20.0755 222.865 21.3014C222.865 22.5273 223.859 23.5211 225.085 23.5211H271.622C272.848 23.5211 273.842 22.5273 273.842 21.3014C273.842 20.0755 272.848 19.0817 271.622 19.0817Z" fill="#D9D9D9" fill-opacity="0.8"/>
<path d="M251.721 27.9606H225.085C223.859 27.9606 222.865 28.9544 222.865 30.1803C222.865 31.4062 223.859 32.4 225.085 32.4H251.721C252.947 32.4 253.94 31.4062 253.94 30.1803C253.94 28.9544 252.947 27.9606 251.721 27.9606Z" fill="#D9D9D9" fill-opacity="0.5"/>
<path d="M224.616 63.9148V61.9751L229.763 56.9293C230.255 56.433 230.666 55.9909 230.994 55.6051C231.322 55.2193 231.567 54.8451 231.732 54.4825C231.896 54.1209 231.979 53.7351 231.979 53.3251C231.979 52.8568 231.872 52.4565 231.66 52.123C231.447 51.7856 231.155 51.5249 230.784 51.3417C230.412 51.1575 229.99 51.0664 229.517 51.0664C229.03 51.0664 228.602 51.1672 228.236 51.3698C227.869 51.5685 227.584 51.8506 227.382 52.217C227.184 52.5835 227.085 53.0207 227.085 53.5277H224.53C224.53 52.5864 224.744 51.7682 225.173 51.0731C225.603 50.3781 226.194 49.8401 226.947 49.4591C227.704 49.0781 228.573 48.8871 229.553 48.8871C230.548 48.8871 231.421 49.0733 232.173 49.4445C232.927 49.8158 233.51 50.3257 233.925 50.9723C234.345 51.6189 234.555 52.3576 234.555 53.1874C234.555 53.7419 234.449 54.2877 234.236 54.8228C234.024 55.3589 233.651 55.9522 233.115 56.6036C232.583 57.255 231.838 58.0441 230.878 58.9709L228.323 61.5698V61.6707H234.78V63.9148H224.616ZM236.079 61.1646V59.029L242.37 49.0897H244.15V52.1308H243.065L238.83 58.841V58.9563H247.611V61.1646H236.079ZM243.152 63.9148V60.5132L243.181 59.5574V49.0897H245.714V63.9148H243.152Z" fill="black" fill-opacity="0.9"/>
<path d="M258.219 66.3005L254.475 59.8142H261.964L258.219 66.3005Z" fill="#E31717"/>
<path d="M268.745 65.964C268.219 65.964 267.748 65.8661 267.332 65.6684C266.916 65.4687 266.585 65.1943 266.34 64.8473C266.099 64.4993 265.97 64.1018 265.953 63.6549H267.375C267.402 63.9864 267.545 64.2569 267.806 64.4682C268.066 64.6757 268.38 64.7794 268.745 64.7794C269.032 64.7794 269.287 64.7145 269.511 64.5826C269.735 64.4508 269.911 64.2676 270.04 64.0339C270.169 63.7994 270.232 63.5318 270.229 63.2323C270.232 62.9269 270.168 62.6555 270.036 62.4189C269.905 62.1814 269.724 61.9963 269.495 61.8615C269.267 61.7248 269.003 61.657 268.705 61.657C268.463 61.6541 268.226 61.6987 267.991 61.7908C267.756 61.8828 267.571 62.004 267.434 62.1543L266.111 61.9371L266.534 57.7677H271.225V58.9911H267.747L267.513 61.1354H267.561C267.711 60.959 267.922 60.8126 268.196 60.6973C268.47 60.579 268.77 60.5199 269.097 60.5199C269.587 60.5199 270.023 60.6352 270.408 60.8669C270.792 61.0957 271.095 61.4117 271.316 61.815C271.537 62.2173 271.648 62.6778 271.648 63.1964C271.648 63.7305 271.523 64.2075 271.276 64.6262C271.031 65.0421 270.691 65.3698 270.254 65.6092C269.819 65.8458 269.316 65.964 268.745 65.964ZM275.959 66.0076C275.309 66.0076 274.751 65.8438 274.285 65.5142C273.822 65.1827 273.465 64.7048 273.215 64.0814C272.968 63.4542 272.844 62.7 272.844 61.8189C272.847 60.9367 272.972 60.1864 273.219 59.5679C273.469 58.9465 273.826 58.4725 274.289 58.1468C274.754 57.8201 275.312 57.6572 275.959 57.6572C276.607 57.6572 277.163 57.8201 277.629 58.1468C278.095 58.4725 278.452 58.9465 278.699 59.5679C278.949 60.1893 279.074 60.9396 279.074 61.8189C279.074 62.703 278.949 63.4581 278.699 64.0853C278.452 64.7086 278.095 65.1856 277.629 65.5142C277.166 65.8438 276.609 66.0076 275.959 66.0076ZM275.959 64.7717C276.464 64.7717 276.863 64.5235 277.156 64.0262C277.45 63.526 277.598 62.7902 277.598 61.8189C277.598 61.1761 277.531 60.6362 277.396 60.2C277.262 59.7628 277.072 59.4341 276.828 59.2121C276.583 58.9892 276.293 58.8767 275.959 58.8767C275.456 58.8767 275.059 59.1268 274.766 59.627C274.474 60.1243 274.327 60.8553 274.324 61.8189C274.322 62.4635 274.386 63.0054 274.518 63.4455C274.652 63.8847 274.842 64.2162 275.086 64.4401C275.331 64.6612 275.622 64.7717 275.959 64.7717ZM284.71 64.3374V63.9108C284.71 63.5977 284.775 63.3098 284.907 63.0461C285.042 62.7834 285.237 62.5711 285.492 62.4112C285.747 62.2502 286.056 62.1698 286.419 62.1698C286.793 62.1698 287.107 62.2502 287.36 62.4112C287.612 62.5692 287.803 62.7795 287.932 63.0423C288.063 63.3059 288.129 63.5958 288.129 63.9108V64.3374C288.129 64.6505 288.063 64.9394 287.932 65.2021C287.8 65.4658 287.607 65.6771 287.351 65.838C287.099 65.9989 286.788 66.0794 286.419 66.0794C286.051 66.0794 285.739 65.9989 285.484 65.838C285.228 65.6771 285.035 65.4658 284.903 65.2021C284.774 64.9394 284.71 64.6505 284.71 64.3374ZM285.741 63.9108V64.3374C285.741 64.5458 285.79 64.7368 285.89 64.9103C285.991 65.0838 286.167 65.1711 286.419 65.1711C286.675 65.1711 286.85 65.0848 286.945 64.9142C287.042 64.7406 287.091 64.5487 287.091 64.3374V63.9108C287.091 63.7005 287.045 63.5085 286.952 63.335C286.86 63.1586 286.683 63.0704 286.419 63.0704C286.172 63.0704 285.997 63.1586 285.894 63.335C285.792 63.5085 285.741 63.7005 285.741 63.9108ZM280.599 59.7104V59.2839C280.599 58.9679 280.667 58.678 280.801 58.4153C280.935 58.1516 281.13 57.9413 281.385 57.7832C281.64 57.6223 281.949 57.5418 282.313 57.5418C282.684 57.5418 282.996 57.6223 283.249 57.7832C283.504 57.9413 283.696 58.1516 283.825 58.4153C283.954 58.678 284.019 58.9679 284.019 59.2839V59.7104C284.019 60.0255 283.953 60.3153 283.821 60.579C283.692 60.8398 283.5 61.0482 283.245 61.2062C282.99 61.3642 282.679 61.4437 282.313 61.4437C281.942 61.4437 281.628 61.3642 281.374 61.2062C281.121 61.0482 280.929 60.8378 280.797 60.5751C280.665 60.3114 280.599 60.0235 280.599 59.7104ZM281.638 59.2839V59.7104C281.638 59.9208 281.687 60.1127 281.784 60.2862C281.884 60.4578 282.061 60.5431 282.313 60.5431C282.566 60.5431 282.739 60.4578 282.834 60.2862C282.931 60.1127 282.981 59.9208 282.981 59.7104V59.2839C282.981 59.0735 282.934 58.8806 282.842 58.7071C282.75 58.5307 282.574 58.4424 282.313 58.4424C282.063 58.4424 281.888 58.5307 281.787 58.7071C281.688 58.8835 281.638 59.0755 281.638 59.2839ZM281.05 65.8535L286.609 57.7677H287.596L282.037 65.8535H281.05Z" fill="#E31717"/>
</svg>
