<svg width="305" height="40" viewBox="0 0 305 40" fill="none" xmlns="http://www.w3.org/2000/svg">
<path d="M285.473 0.338405H19.5264C8.92918 0.338405 0.338405 8.92917 0.338405 19.5264C0.338405 30.1237 8.92918 38.7144 19.5264 38.7144H285.473C296.071 38.7144 304.661 30.1237 304.661 19.5264C304.661 8.92917 296.071 0.338405 285.473 0.338405Z" fill="white" stroke="#D5D5D5" stroke-width="0.676865"/>
<path fill-rule="evenodd" clip-rule="evenodd" d="M22.422 17.4074C22.422 16.0317 23.5373 14.9165 24.913 14.9165C26.2887 14.9165 27.404 16.0317 27.404 17.4074V18.4041H27.901C28.4514 18.4041 28.8974 18.8502 28.8974 19.4005V24.3825C28.8974 24.9327 28.4514 25.3788 27.901 25.3788H21.9229C21.3725 25.3788 20.9264 24.9327 20.9264 24.3825V19.4005C20.9264 18.8502 21.3725 18.4041 21.9229 18.4041H22.422V17.4074ZM26.4079 18.4041H23.4189V17.4078C23.4189 16.5823 24.0879 15.9132 24.9134 15.9132C25.7389 15.9132 26.4079 16.5823 26.4079 17.4078V18.4041Z" fill="#5F6367"/>
<path d="M44.2263 27.6306C44.1469 27.6306 44.0582 27.626 43.96 27.6166C43.862 27.612 43.771 27.6026 43.6868 27.5886V26.5868C43.7616 26.6008 43.8433 26.6102 43.9321 26.6149C44.0208 26.6195 44.1072 26.6218 44.1912 26.6218C44.5369 26.6218 44.8194 26.5331 45.0388 26.3557C45.2631 26.1781 45.4429 25.8723 45.5783 25.438L45.7184 24.9897L42.9233 17.431H44.2263L46.5521 24.4082L46.0686 23.6446H46.643L46.1597 24.4082L48.4785 17.431H49.7604L46.8112 25.4449C46.6011 26.0101 46.3816 26.4514 46.1528 26.769C45.9285 27.0866 45.6624 27.3084 45.3541 27.4345C45.0506 27.5652 44.6746 27.6306 44.2263 27.6306ZM54.1947 25.1158C53.4802 25.1158 52.8614 24.9593 52.3383 24.6464C51.8199 24.3288 51.4183 23.8782 51.1334 23.2944C50.8532 22.7106 50.7132 22.0171 50.7132 21.2138V21.1998C50.7132 20.3918 50.8532 19.696 51.1334 19.1123C51.4183 18.5285 51.8199 18.0802 52.3383 17.7672C52.8614 17.4543 53.4802 17.2978 54.1947 17.2978C54.9139 17.2978 55.5327 17.4543 56.0511 17.7672C56.5695 18.0802 56.9688 18.5285 57.249 19.1123C57.5339 19.696 57.6763 20.3918 57.6763 21.1998V21.2138C57.6763 22.0171 57.5339 22.7106 57.249 23.2944C56.9688 23.8782 56.5695 24.3288 56.0511 24.6464C55.5327 24.9593 54.9139 25.1158 54.1947 25.1158ZM54.1947 24.037C54.6711 24.037 55.075 23.9249 55.4066 23.7007C55.7382 23.4765 55.9904 23.1543 56.1632 22.734C56.3407 22.3136 56.4294 21.8069 56.4294 21.2138V21.1998C56.4294 20.602 56.3407 20.0929 56.1632 19.6727C55.9904 19.2524 55.7382 18.9324 55.4066 18.713C55.075 18.4887 54.6711 18.3767 54.1947 18.3767C53.7184 18.3767 53.3144 18.4887 52.9828 18.713C52.6513 18.9324 52.3968 19.2524 52.2192 19.6727C52.0465 20.0929 51.9601 20.602 51.9601 21.1998V21.2138C51.9601 21.8069 52.0465 22.3136 52.2192 22.734C52.3968 23.1543 52.6513 23.4765 52.9828 23.7007C53.3144 23.9249 53.7184 24.037 54.1947 24.037ZM62.0966 25.1158C61.5268 25.1158 61.0482 25.0083 60.6606 24.7935C60.2729 24.5739 59.981 24.2565 59.7849 23.8407C59.5935 23.4205 59.4977 22.9138 59.4977 22.3207V17.431H60.7166V22.0264C60.7166 22.7036 60.8473 23.208 61.1089 23.5395C61.3751 23.8711 61.8094 24.037 62.4119 24.037C62.7434 24.037 63.0353 23.9879 63.2875 23.8898C63.5443 23.7917 63.7592 23.6516 63.932 23.4695C64.1048 23.2827 64.2332 23.0585 64.3173 22.797C64.4061 22.5308 64.4503 22.2319 64.4503 21.9003V17.431H65.6693V24.9826H64.4503V23.8548H64.3383C64.2169 24.121 64.0511 24.3498 63.8409 24.5413C63.6308 24.7281 63.3786 24.8705 63.0843 24.9686C62.7948 25.0667 62.4655 25.1158 62.0966 25.1158ZM67.946 24.9826V17.431H69.1649V18.5518H69.277C69.4217 18.1548 69.667 17.8466 70.0125 17.6271C70.3584 17.4076 70.7858 17.2978 71.2945 17.2978C71.4115 17.2978 71.5256 17.3049 71.6378 17.3189C71.7548 17.3282 71.8428 17.3376 71.9037 17.347V18.5308C71.778 18.5075 71.6542 18.4912 71.5324 18.4818C71.4163 18.4678 71.2896 18.4608 71.1542 18.4608C70.7665 18.4608 70.4232 18.5379 70.1246 18.6919C69.8258 18.8461 69.5899 19.0608 69.4171 19.3364C69.2489 19.6119 69.1649 19.9342 69.1649 20.3032V24.9826H67.946ZM75.8617 25.1158C75.3018 25.1158 74.8067 25.0316 74.3764 24.8636C73.947 24.6908 73.6018 24.4503 73.3397 24.142C73.0835 23.8338 72.9316 23.4718 72.8843 23.0562H74.1317C74.2342 23.3691 74.4354 23.6213 74.7342 23.8128C75.033 24.0043 75.4227 24.1 75.9043 24.1C76.2447 24.1 76.5435 24.051 76.8007 23.9528C77.0618 23.8501 77.2678 23.7123 77.4167 23.5395C77.5666 23.3621 77.6411 23.1589 77.6411 22.9301V22.9161C77.6411 22.6592 77.5386 22.442 77.3326 22.2646C77.1276 22.0825 76.791 21.9353 76.324 21.8232L75.1548 21.5431C74.6829 21.431 74.2952 21.2863 73.9915 21.1087C73.6879 20.9266 73.4635 20.7048 73.3194 20.4432C73.1744 20.1771 73.1018 19.8641 73.1018 19.5045V19.4975C73.1018 19.0772 73.2237 18.7013 73.4664 18.3697C73.714 18.0381 74.0495 17.7766 74.475 17.5852C74.8995 17.3937 75.3782 17.2978 75.9111 17.2978C76.4391 17.2978 76.9061 17.382 77.3123 17.5501C77.7233 17.7136 78.052 17.947 78.2996 18.2506C78.552 18.5542 78.7058 18.9114 78.7618 19.3224H77.5637C77.4844 19.0235 77.3026 18.7807 77.0173 18.5939C76.733 18.407 76.3617 18.3136 75.9043 18.3136C75.6055 18.3136 75.3386 18.3627 75.1055 18.4608C74.8715 18.5542 74.6878 18.6849 74.5524 18.853C74.416 19.0212 74.3483 19.2173 74.3483 19.4415V19.4555C74.3483 19.6236 74.3928 19.773 74.4818 19.9039C74.5708 20.0346 74.7081 20.149 74.8947 20.2471C75.0823 20.3451 75.3221 20.4316 75.6171 20.5062L76.7794 20.7865C77.4892 20.9593 78.0172 21.2069 78.3625 21.5291C78.7135 21.8513 78.8885 22.2833 78.8885 22.825V22.839C78.8885 23.2874 78.7551 23.6843 78.4891 24.0299C78.2222 24.3709 77.8606 24.637 77.4032 24.8286C76.9496 25.02 76.4361 25.1158 75.8617 25.1158ZM80.8071 24.9826V17.431H82.0265V24.9826H80.8071ZM81.4241 15.9739C81.1949 15.9739 80.9966 15.8922 80.8284 15.7288C80.665 15.5606 80.5837 15.3622 80.5837 15.1333C80.5837 14.8998 80.665 14.7013 80.8284 14.5379C80.9966 14.3743 81.1949 14.2926 81.4241 14.2926C81.6571 14.2926 81.8563 14.3743 82.0198 14.5379C82.1832 14.7013 82.2644 14.8998 82.2644 15.1333C82.2644 15.3622 82.1832 15.5606 82.0198 15.7288C81.8563 15.8922 81.6571 15.9739 81.4241 15.9739ZM87.0077 25.0387C86.2321 25.0387 85.6693 24.8822 85.3192 24.5693C84.9731 24.2565 84.8009 23.7404 84.8009 23.0212V18.4397H83.6095V17.431H84.8009V15.4766H86.0619V17.431H87.7146V18.4397H86.0619V22.7129C86.0619 23.1566 86.1451 23.4765 86.3133 23.6727C86.4816 23.8641 86.7621 23.9599 87.1547 23.9599C87.262 23.9599 87.3529 23.9576 87.4274 23.9528C87.5067 23.9482 87.6024 23.9412 87.7146 23.9318V24.9686C87.5976 24.9873 87.4815 25.0037 87.3645 25.0176C87.2475 25.0316 87.1286 25.0387 87.0077 25.0387ZM92.5207 25.1158C91.8012 25.1158 91.1823 24.957 90.664 24.6394C90.1505 24.3218 89.7531 23.8734 89.4726 23.2944C89.198 22.7106 89.0597 22.0241 89.0597 21.2348V21.2278C89.0597 20.4479 89.198 19.7638 89.4726 19.1753C89.7531 18.5869 90.1476 18.1269 90.6572 17.7953C91.1659 17.4637 91.7616 17.2978 92.4433 17.2978C93.1299 17.2978 93.7179 17.4566 94.2082 17.7742C94.7033 18.0918 95.0823 18.5355 95.3434 19.1052C95.6094 19.6704 95.7428 20.3288 95.7428 21.0808V21.5571H89.6902V20.5833H95.1191L94.5166 21.473V20.9897C94.5166 20.3966 94.4277 19.9085 94.2507 19.5256C94.0728 19.1426 93.8281 18.8578 93.5148 18.6709C93.2024 18.4795 92.8427 18.3837 92.4366 18.3837C92.0304 18.3837 91.6658 18.4841 91.3438 18.685C91.0257 18.8811 90.7733 19.173 90.5866 19.5606C90.4 19.9482 90.3062 20.4245 90.3062 20.9897V21.473C90.3062 22.0101 90.3981 22.4701 90.5799 22.853C90.7617 23.2313 91.0208 23.5232 91.3574 23.7287C91.6939 23.9295 92.0904 24.0299 92.5487 24.0299C92.8891 24.0299 93.186 23.9832 93.4384 23.8898C93.6898 23.7965 93.8977 23.6773 94.0612 23.5326C94.2246 23.3878 94.3397 23.2407 94.4045 23.0912L94.4325 23.0282H95.6519L95.6374 23.0842C95.5726 23.3411 95.4556 23.591 95.2873 23.8338C95.1239 24.072 94.9112 24.2892 94.6501 24.4853C94.388 24.6767 94.0776 24.8309 93.7179 24.9476C93.363 25.0597 92.9636 25.1158 92.5207 25.1158ZM98.6284 25.0527C98.3818 25.0527 98.1662 24.9639 97.9844 24.7865C97.8074 24.6043 97.7185 24.3895 97.7185 24.142C97.7185 23.8898 97.8074 23.675 97.9844 23.4975C98.1662 23.3201 98.3818 23.2313 98.6284 23.2313C98.8808 23.2313 99.0955 23.3201 99.2734 23.4975C99.4504 23.675 99.5394 23.8898 99.5394 24.142C99.5394 24.3895 99.4504 24.6043 99.2734 24.7865C99.0955 24.9639 98.8808 25.0527 98.6284 25.0527ZM104.702 25.1158C103.997 25.1158 103.385 24.9546 102.867 24.6324C102.349 24.3101 101.947 23.8548 101.662 23.2663C101.378 22.6779 101.235 21.9843 101.235 21.1858V21.1718C101.235 20.3872 101.375 19.7054 101.655 19.1263C101.94 18.5471 102.342 18.0988 102.86 17.7813C103.378 17.4591 103.991 17.2978 104.696 17.2978C105.308 17.2978 105.835 17.4053 106.279 17.6202C106.722 17.8349 107.077 18.1246 107.343 18.4887C107.609 18.8484 107.78 19.2524 107.855 19.7007L107.862 19.7427H106.65L106.643 19.7217C106.549 19.3481 106.337 19.0306 106.006 18.769C105.674 18.5075 105.237 18.3767 104.696 18.3767C104.242 18.3767 103.85 18.4912 103.519 18.72C103.187 18.9488 102.93 19.2734 102.748 19.6937C102.57 20.1093 102.482 20.602 102.482 21.1718V21.1858C102.482 21.7649 102.573 22.2692 102.755 22.6989C102.937 23.1239 103.194 23.4532 103.525 23.6867C103.857 23.9201 104.247 24.037 104.696 24.037C105.204 24.037 105.62 23.9272 105.942 23.7077C106.265 23.4882 106.496 23.1683 106.635 22.748L106.65 22.7059L107.855 22.6989L107.84 22.776C107.738 23.229 107.556 23.6329 107.294 23.9879C107.033 24.3382 106.688 24.6137 106.257 24.8145C105.828 25.0153 105.31 25.1158 104.702 25.1158ZM112.744 25.1158C112.029 25.1158 111.412 24.9593 110.888 24.6464C110.37 24.3288 109.968 23.8782 109.683 23.2944C109.403 22.7106 109.263 22.0171 109.263 21.2138V21.1998C109.263 20.3918 109.403 19.696 109.683 19.1123C109.968 18.5285 110.37 18.0802 110.888 17.7672C111.412 17.4543 112.029 17.2978 112.744 17.2978C113.464 17.2978 114.082 17.4543 114.601 17.7672C115.119 18.0802 115.518 18.5285 115.799 19.1123C116.083 19.696 116.226 20.3918 116.226 21.1998V21.2138C116.226 22.0171 116.083 22.7106 115.799 23.2944C115.518 23.8782 115.119 24.3288 114.601 24.6464C114.082 24.9593 113.464 25.1158 112.744 25.1158ZM112.744 24.037C113.221 24.037 113.625 23.9249 113.957 23.7007C114.287 23.4765 114.54 23.1543 114.713 22.734C114.89 22.3136 114.979 21.8069 114.979 21.2138V21.1998C114.979 20.602 114.89 20.0929 114.713 19.6727C114.54 19.2524 114.287 18.9324 113.957 18.713C113.625 18.4887 113.221 18.3767 112.744 18.3767C112.268 18.3767 111.864 18.4887 111.532 18.713C111.201 18.9324 110.946 19.2524 110.768 19.6727C110.596 20.0929 110.509 20.602 110.509 21.1998V21.2138C110.509 21.8069 110.596 22.3136 110.768 22.734C110.946 23.1543 111.201 23.4765 111.532 23.7007C111.864 23.9249 112.268 24.037 112.744 24.037ZM118.118 24.9826V17.431H119.336V18.5798H119.448C119.617 18.1736 119.873 17.8583 120.219 17.6342C120.569 17.41 120.992 17.2978 121.487 17.2978C121.828 17.2978 122.134 17.3539 122.405 17.466C122.675 17.5781 122.909 17.7346 123.105 17.9354C123.301 18.1315 123.458 18.3603 123.575 18.6219H123.687C123.822 18.3557 124.004 18.1246 124.233 17.9283C124.462 17.7276 124.726 17.5735 125.024 17.466C125.328 17.3539 125.653 17.2978 125.998 17.2978C126.512 17.2978 126.947 17.3937 127.302 17.5852C127.66 17.7766 127.934 18.0568 128.121 18.4257C128.307 18.79 128.401 19.236 128.401 19.7638V24.9826H127.182V20.0439C127.182 19.6704 127.124 19.3621 127.007 19.1192C126.895 18.8718 126.722 18.6873 126.488 18.5658C126.255 18.4397 125.961 18.3767 125.606 18.3767C125.255 18.3767 124.95 18.4561 124.689 18.6148C124.427 18.7736 124.224 18.9862 124.079 19.2524C123.935 19.5139 123.862 19.8057 123.862 20.128V24.9826H122.643V19.8548C122.643 19.556 122.578 19.2967 122.446 19.0772C122.321 18.853 122.139 18.6802 121.9 18.5589C121.667 18.4374 121.391 18.3767 121.074 18.3767C120.746 18.3767 120.45 18.4631 120.184 18.6359C119.922 18.8087 119.714 19.0422 119.561 19.3364C119.411 19.626 119.336 19.9482 119.336 20.3032V24.9826H118.118Z" fill="#0C0C0C" fill-opacity="0.9"/>
</svg>
