<svg width="24" height="24" viewBox="0 0 24 24" fill="none" xmlns="http://www.w3.org/2000/svg">
<path fill-rule="evenodd" clip-rule="evenodd" d="M11.484 2.17007C11.6233 2.03798 11.808 1.96436 12 1.96436C12.192 1.96436 12.3767 2.03798 12.516 2.17007C14.6387 4.18595 17.4659 5.2914 20.393 5.25007C20.5525 5.248 20.7084 5.29681 20.8383 5.38942C20.9681 5.48203 21.065 5.61362 21.115 5.76507C21.537 7.05124 21.7514 8.39644 21.75 9.75007C21.75 15.6921 17.686 20.6831 12.187 22.0981C12.0643 22.1297 11.9357 22.1297 11.813 22.0981C6.314 20.6831 2.25 15.6921 2.25 9.75007C2.25 8.36007 2.473 7.02007 2.885 5.76507C2.93478 5.61343 3.03164 5.48163 3.16149 5.38883C3.29134 5.29603 3.44741 5.24707 3.607 5.24907L3.75 5.25007C6.746 5.25007 9.468 4.08007 11.484 2.17007ZM12 8.25007C12.1989 8.25007 12.3897 8.32909 12.5303 8.46974C12.671 8.61039 12.75 8.80116 12.75 9.00007V12.7501C12.75 12.949 12.671 13.1397 12.5303 13.2804C12.3897 13.4211 12.1989 13.5001 12 13.5001C11.8011 13.5001 11.6103 13.4211 11.4697 13.2804C11.329 13.1397 11.25 12.949 11.25 12.7501V9.00007C11.25 8.80116 11.329 8.61039 11.4697 8.46974C11.6103 8.32909 11.8011 8.25007 12 8.25007ZM12 15.0001C11.8011 15.0001 11.6103 15.0791 11.4697 15.2197C11.329 15.3604 11.25 15.5512 11.25 15.7501V15.7581C11.25 16.1721 11.586 16.5081 12 16.5081H12.008C12.2069 16.5081 12.3977 16.4291 12.5383 16.2884C12.679 16.1477 12.758 15.957 12.758 15.7581V15.7501C12.758 15.5512 12.679 15.3604 12.5383 15.2197C12.3977 15.0791 12.2069 15.0001 12.008 15.0001H12Z" fill="#36424D"/>
</svg>
