<svg width="25" height="25" viewBox="0 0 25 25" fill="none" xmlns="http://www.w3.org/2000/svg">
<path fill-rule="evenodd" clip-rule="evenodd" d="M12.4453 1.5C11.0529 1.5 9.71757 2.05312 8.733 3.03769C7.74844 4.02226 7.19531 5.35761 7.19531 6.75V9.75C6.39966 9.75 5.6366 10.0661 5.07399 10.6287C4.51138 11.1913 4.19531 11.9544 4.19531 12.75V19.5C4.19531 20.2956 4.51138 21.0587 5.07399 21.6213C5.6366 22.1839 6.39966 22.5 7.19531 22.5H17.6953C18.491 22.5 19.254 22.1839 19.8166 21.6213C20.3792 21.0587 20.6953 20.2956 20.6953 19.5V12.75C20.6953 11.9544 20.3792 11.1913 19.8166 10.6287C19.254 10.0661 18.491 9.75 17.6953 9.75V6.75C17.6953 3.85 15.3453 1.5 12.4453 1.5ZM16.1953 9.75V6.75C16.1953 5.75544 15.8002 4.80161 15.097 4.09835C14.3937 3.39509 13.4399 3 12.4453 3C11.4508 3 10.4969 3.39509 9.79366 4.09835C9.0904 4.80161 8.69531 5.75544 8.69531 6.75V9.75H16.1953Z" fill="#C9CBCB"/>
</svg>
