<svg width="534" height="462" viewBox="0 0 534 462" fill="none" xmlns="http://www.w3.org/2000/svg">
<g opacity="0.4">
<path d="M218.631 348.986V337.378" stroke="black" stroke-opacity="0.16" stroke-width="1.93402"/>
<path d="M334.718 348.986V337.378" stroke="black" stroke-opacity="0.16" stroke-width="1.93402"/>
<path d="M470.152 348.986L470.152 337.378" stroke="black" stroke-opacity="0.16" stroke-width="1.93402"/>
<path d="M218.631 191.544V179.935" stroke="black" stroke-opacity="0.16" stroke-width="1.93402"/>
<path d="M334.718 191.544V179.935" stroke="black" stroke-opacity="0.16" stroke-width="1.93402"/>
<path d="M470.152 191.544L470.152 179.935" stroke="black" stroke-opacity="0.16" stroke-width="1.93402"/>
<path d="M218.631 461.446V449.837" stroke="black" stroke-opacity="0.16" stroke-width="1.93402"/>
<path d="M334.718 461.446V449.837" stroke="black" stroke-opacity="0.16" stroke-width="1.93402"/>
<path d="M470.152 461.445L470.152 449.837" stroke="black" stroke-opacity="0.16" stroke-width="1.93402"/>
<path d="M218.631 326.495V314.886" stroke="black" stroke-opacity="0.16" stroke-width="1.93402"/>
<path d="M334.718 326.495V314.886" stroke="black" stroke-opacity="0.16" stroke-width="1.93402"/>
<path d="M470.152 326.494L470.152 314.886" stroke="black" stroke-opacity="0.16" stroke-width="1.93402"/>
<path d="M218.631 101.576V89.9676" stroke="black" stroke-opacity="0.16" stroke-width="1.93402"/>
<path d="M334.718 101.576V89.9676" stroke="black" stroke-opacity="0.16" stroke-width="1.93402"/>
<path d="M470.152 101.576L470.152 89.9676" stroke="black" stroke-opacity="0.16" stroke-width="1.93402"/>
<path d="M218.631 169.052V157.443" stroke="black" stroke-opacity="0.16" stroke-width="1.93402"/>
<path d="M334.718 169.052V157.443" stroke="black" stroke-opacity="0.16" stroke-width="1.93402"/>
<path d="M470.152 169.052L470.152 157.443" stroke="black" stroke-opacity="0.16" stroke-width="1.93402"/>
<path d="M218.631 438.954V427.345" stroke="black" stroke-opacity="0.16" stroke-width="1.93402"/>
<path d="M334.718 438.954V427.345" stroke="black" stroke-opacity="0.16" stroke-width="1.93402"/>
<path d="M470.152 438.954L470.152 427.345" stroke="black" stroke-opacity="0.16" stroke-width="1.93402"/>
<path d="M218.631 304.003V292.394" stroke="black" stroke-opacity="0.16" stroke-width="1.93402"/>
<path d="M334.718 304.003V292.394" stroke="black" stroke-opacity="0.16" stroke-width="1.93402"/>
<path d="M470.152 304.003L470.152 292.394" stroke="black" stroke-opacity="0.16" stroke-width="1.93402"/>
<path d="M218.631 79.0842V67.4755" stroke="black" stroke-opacity="0.16" stroke-width="1.93402"/>
<path d="M334.718 79.0842V67.4755" stroke="black" stroke-opacity="0.16" stroke-width="1.93402"/>
<path d="M470.152 79.0842L470.152 67.4755" stroke="black" stroke-opacity="0.16" stroke-width="1.93402"/>
<path d="M218.631 146.56V134.951" stroke="black" stroke-opacity="0.16" stroke-width="1.93402"/>
<path d="M334.718 146.56V134.951" stroke="black" stroke-opacity="0.16" stroke-width="1.93402"/>
<path d="M470.152 146.56L470.152 134.951" stroke="black" stroke-opacity="0.16" stroke-width="1.93402"/>
<path d="M218.631 416.462V404.853" stroke="black" stroke-opacity="0.16" stroke-width="1.93402"/>
<path d="M334.718 416.462V404.853" stroke="black" stroke-opacity="0.16" stroke-width="1.93402"/>
<path d="M470.152 416.462L470.152 404.853" stroke="black" stroke-opacity="0.16" stroke-width="1.93402"/>
<path d="M218.631 281.511V269.902" stroke="black" stroke-opacity="0.16" stroke-width="1.93402"/>
<path d="M334.718 281.511V269.902" stroke="black" stroke-opacity="0.16" stroke-width="1.93402"/>
<path d="M470.152 281.511L470.152 269.902" stroke="black" stroke-opacity="0.16" stroke-width="1.93402"/>
<path d="M218.631 56.5923V44.9836" stroke="black" stroke-opacity="0.16" stroke-width="1.93402"/>
<path d="M334.718 56.5923V44.9836" stroke="black" stroke-opacity="0.16" stroke-width="1.93402"/>
<path d="M470.152 56.5923L470.152 44.9836" stroke="black" stroke-opacity="0.16" stroke-width="1.93402"/>
<path d="M218.631 124.068V112.459" stroke="black" stroke-opacity="0.16" stroke-width="1.93402"/>
<path d="M334.718 124.068V112.459" stroke="black" stroke-opacity="0.16" stroke-width="1.93402"/>
<path d="M470.152 124.068L470.152 112.459" stroke="black" stroke-opacity="0.16" stroke-width="1.93402"/>
<path d="M218.631 393.97V382.361" stroke="black" stroke-opacity="0.16" stroke-width="1.93402"/>
<path d="M334.718 393.97V382.361" stroke="black" stroke-opacity="0.16" stroke-width="1.93402"/>
<path d="M470.152 393.97L470.152 382.361" stroke="black" stroke-opacity="0.16" stroke-width="1.93402"/>
<path d="M218.631 259.019V247.41" stroke="black" stroke-opacity="0.16" stroke-width="1.93402"/>
<path d="M334.718 259.019V247.41" stroke="black" stroke-opacity="0.16" stroke-width="1.93402"/>
<path d="M470.152 259.019L470.152 247.41" stroke="black" stroke-opacity="0.16" stroke-width="1.93402"/>
<path d="M218.631 34.1006V22.4919" stroke="black" stroke-opacity="0.16" stroke-width="1.93402"/>
<path d="M334.718 34.1006V22.4919" stroke="black" stroke-opacity="0.16" stroke-width="1.93402"/>
<path d="M470.152 34.1006L470.152 22.4919" stroke="black" stroke-opacity="0.16" stroke-width="1.93402"/>
<path d="M218.631 360.837C215.96 360.837 213.794 363.002 213.794 365.674C213.794 368.345 215.96 370.511 218.631 370.511C221.302 370.511 223.468 368.345 223.468 365.674C223.468 363.002 221.302 360.837 218.631 360.837Z" stroke="black" stroke-opacity="0.16" stroke-width="1.93402"/>
<path d="M334.718 360.837C332.046 360.837 329.881 363.002 329.881 365.674C329.881 368.345 332.046 370.511 334.718 370.511C337.389 370.511 339.554 368.345 339.554 365.674C339.554 363.002 337.389 360.837 334.718 360.837Z" stroke="black" stroke-opacity="0.16" stroke-width="1.93402"/>
<path d="M470.152 360.837C472.824 360.837 474.989 363.002 474.989 365.674C474.989 368.345 472.824 370.511 470.152 370.511C467.481 370.511 465.315 368.345 465.315 365.674C465.315 363.002 467.481 360.837 470.152 360.837Z" stroke="black" stroke-opacity="0.16" stroke-width="1.93402"/>
<path d="M218.631 203.394C215.96 203.394 213.794 205.56 213.794 208.231C213.794 210.902 215.96 213.068 218.631 213.068C221.302 213.068 223.468 210.902 223.468 208.231C223.468 205.56 221.302 203.394 218.631 203.394Z" stroke="black" stroke-opacity="0.16" stroke-width="1.93402"/>
<path d="M334.718 203.394C332.046 203.394 329.881 205.56 329.881 208.231C329.881 210.902 332.046 213.068 334.718 213.068C337.389 213.068 339.554 210.902 339.554 208.231C339.554 205.56 337.389 203.394 334.718 203.394Z" stroke="black" stroke-opacity="0.16" stroke-width="1.93402"/>
<path d="M470.152 203.394C472.824 203.394 474.989 205.56 474.989 208.231C474.989 210.902 472.824 213.068 470.152 213.068C467.481 213.068 465.315 210.902 465.315 208.231C465.315 205.56 467.481 203.394 470.152 203.394Z" stroke="black" stroke-opacity="0.16" stroke-width="1.93402"/>
<path d="M218.631 225.886C215.96 225.886 213.794 228.051 213.794 230.723C213.794 233.394 215.96 235.56 218.631 235.56C221.302 235.56 223.468 233.394 223.468 230.723C223.468 228.051 221.302 225.886 218.631 225.886Z" stroke="black" stroke-opacity="0.16" stroke-width="1.93402"/>
<path d="M334.718 225.886C332.046 225.886 329.881 228.051 329.881 230.723C329.881 233.394 332.046 235.56 334.718 235.56C337.389 235.56 339.554 233.394 339.554 230.723C339.554 228.051 337.389 225.886 334.718 225.886Z" stroke="black" stroke-opacity="0.16" stroke-width="1.93402"/>
<path d="M470.152 225.886C472.824 225.886 474.989 228.051 474.989 230.723C474.989 233.394 472.824 235.56 470.152 235.56C467.481 235.56 465.315 233.394 465.315 230.723C465.315 228.051 467.481 225.886 470.152 225.886Z" stroke="black" stroke-opacity="0.16" stroke-width="1.93402"/>
<path d="M315.37 0L315.37 11.6087" stroke="black" stroke-opacity="0.16" stroke-width="1.93402"/>
<path d="M315.37 134.951L315.37 146.56" stroke="black" stroke-opacity="0.16" stroke-width="1.93402"/>
<path d="M315.37 292.394L315.37 304.003" stroke="black" stroke-opacity="0.16" stroke-width="1.93402"/>
<path d="M315.37 22.4919L315.37 34.1005" stroke="black" stroke-opacity="0.16" stroke-width="1.93402"/>
<path d="M315.37 157.443L315.37 169.052" stroke="black" stroke-opacity="0.16" stroke-width="1.93402"/>
<path d="M315.37 382.361L315.37 393.97" stroke="black" stroke-opacity="0.16" stroke-width="1.93402"/>
<path d="M315.37 314.886L315.37 326.495" stroke="black" stroke-opacity="0.16" stroke-width="1.93402"/>
<path d="M315.37 44.9836L315.37 56.5923" stroke="black" stroke-opacity="0.16" stroke-width="1.93402"/>
<path d="M315.37 179.935L315.37 191.544" stroke="black" stroke-opacity="0.16" stroke-width="1.93402"/>
<path d="M315.37 404.853L315.37 416.462" stroke="black" stroke-opacity="0.16" stroke-width="1.93402"/>
<path d="M315.37 337.378L315.37 348.986" stroke="black" stroke-opacity="0.16" stroke-width="1.93402"/>
<path d="M315.37 67.4755L315.37 79.0842" stroke="black" stroke-opacity="0.16" stroke-width="1.93402"/>
<path d="M315.37 202.427L315.37 214.035" stroke="black" stroke-opacity="0.16" stroke-width="1.93402"/>
<path d="M315.37 427.345L315.37 438.954" stroke="black" stroke-opacity="0.16" stroke-width="1.93402"/>
<path d="M315.37 359.869L315.37 371.478" stroke="black" stroke-opacity="0.16" stroke-width="1.93402"/>
<path d="M315.37 89.9676L315.37 101.576" stroke="black" stroke-opacity="0.16" stroke-width="1.93402"/>
<path d="M315.37 224.919L315.37 236.527" stroke="black" stroke-opacity="0.16" stroke-width="1.93402"/>
<path d="M315.37 449.837L315.37 461.446" stroke="black" stroke-opacity="0.16" stroke-width="1.93402"/>
<path d="M315.37 123.101C312.698 123.101 310.533 120.935 310.533 118.264C310.533 115.592 312.698 113.427 315.37 113.427C318.041 113.427 320.207 115.592 320.207 118.264C320.207 120.935 318.041 123.101 315.37 123.101Z" stroke="black" stroke-opacity="0.16" stroke-width="1.93402"/>
<path d="M315.37 280.543C312.698 280.543 310.533 278.378 310.533 275.707C310.533 273.035 312.698 270.87 315.37 270.87C318.041 270.87 320.207 273.035 320.207 275.707C320.207 278.378 318.041 280.543 315.37 280.543Z" stroke="black" stroke-opacity="0.16" stroke-width="1.93402"/>
<path d="M315.37 258.052C312.698 258.052 310.533 255.886 310.533 253.215C310.533 250.543 312.698 248.378 315.37 248.378C318.041 248.378 320.207 250.543 320.207 253.215C320.207 255.886 318.041 258.052 315.37 258.052Z" stroke="black" stroke-opacity="0.16" stroke-width="1.93402"/>
<path d="M489.5 0V11.6087" stroke="black" stroke-opacity="0.16" stroke-width="1.93402"/>
<path d="M489.5 134.951V146.56" stroke="black" stroke-opacity="0.16" stroke-width="1.93402"/>
<path d="M489.5 292.394V304.003" stroke="black" stroke-opacity="0.16" stroke-width="1.93402"/>
<path d="M489.5 22.4919V34.1006" stroke="black" stroke-opacity="0.16" stroke-width="1.93402"/>
<path d="M489.5 157.443V169.052" stroke="black" stroke-opacity="0.16" stroke-width="1.93402"/>
<path d="M489.5 382.361V393.97" stroke="black" stroke-opacity="0.16" stroke-width="1.93402"/>
<path d="M489.5 314.886V326.495" stroke="black" stroke-opacity="0.16" stroke-width="1.93402"/>
<path d="M489.5 44.9836V56.5923" stroke="black" stroke-opacity="0.16" stroke-width="1.93402"/>
<path d="M489.5 179.935V191.544" stroke="black" stroke-opacity="0.16" stroke-width="1.93402"/>
<path d="M489.5 404.853V416.462" stroke="black" stroke-opacity="0.16" stroke-width="1.93402"/>
<path d="M489.5 337.378V348.986" stroke="black" stroke-opacity="0.16" stroke-width="1.93402"/>
<path d="M489.5 67.4755V79.0842" stroke="black" stroke-opacity="0.16" stroke-width="1.93402"/>
<path d="M489.5 202.427V214.035" stroke="black" stroke-opacity="0.16" stroke-width="1.93402"/>
<path d="M489.5 427.345V438.954" stroke="black" stroke-opacity="0.16" stroke-width="1.93402"/>
<path d="M489.5 359.869V371.478" stroke="black" stroke-opacity="0.16" stroke-width="1.93402"/>
<path d="M489.5 89.9676V101.576" stroke="black" stroke-opacity="0.16" stroke-width="1.93402"/>
<path d="M489.5 224.919V236.527" stroke="black" stroke-opacity="0.16" stroke-width="1.93402"/>
<path d="M489.5 449.837V461.446" stroke="black" stroke-opacity="0.16" stroke-width="1.93402"/>
<path d="M489.5 123.101C492.172 123.101 494.337 120.935 494.337 118.264C494.337 115.592 492.172 113.427 489.5 113.427C486.829 113.427 484.663 115.592 484.663 118.264C484.663 120.935 486.829 123.101 489.5 123.101Z" stroke="black" stroke-opacity="0.16" stroke-width="1.93402"/>
<path d="M489.5 280.543C492.172 280.543 494.337 278.378 494.337 275.707C494.337 273.035 492.172 270.87 489.5 270.87C486.829 270.87 484.663 273.035 484.663 275.707C484.663 278.378 486.829 280.543 489.5 280.543Z" stroke="black" stroke-opacity="0.16" stroke-width="1.93402"/>
<path d="M489.5 258.052C492.172 258.052 494.337 255.886 494.337 253.215C494.337 250.543 492.172 248.378 489.5 248.378C486.829 248.378 484.663 250.543 484.663 253.215C484.663 255.886 486.829 258.052 489.5 258.052Z" stroke="black" stroke-opacity="0.16" stroke-width="1.93402"/>
<path d="M83.1955 0L83.1955 11.6087" stroke="black" stroke-opacity="0.16" stroke-width="1.93402"/>
<path d="M83.1955 134.951L83.1955 146.56" stroke="black" stroke-opacity="0.16" stroke-width="1.93402"/>
<path d="M83.1955 292.394L83.1955 304.003" stroke="black" stroke-opacity="0.16" stroke-width="1.93402"/>
<path d="M83.1955 22.4919L83.1955 34.1005" stroke="black" stroke-opacity="0.16" stroke-width="1.93402"/>
<path d="M83.1955 157.443L83.1955 169.052" stroke="black" stroke-opacity="0.16" stroke-width="1.93402"/>
<path d="M83.1955 382.361L83.1955 393.97" stroke="black" stroke-opacity="0.16" stroke-width="1.93402"/>
<path d="M83.1955 314.886L83.1955 326.495" stroke="black" stroke-opacity="0.16" stroke-width="1.93402"/>
<path d="M83.1955 44.9836L83.1955 56.5923" stroke="black" stroke-opacity="0.16" stroke-width="1.93402"/>
<path d="M83.1955 179.935L83.1955 191.544" stroke="black" stroke-opacity="0.16" stroke-width="1.93402"/>
<path d="M83.1955 404.853L83.1955 416.462" stroke="black" stroke-opacity="0.16" stroke-width="1.93402"/>
<path d="M83.1955 337.378L83.1955 348.986" stroke="black" stroke-opacity="0.16" stroke-width="1.93402"/>
<path d="M83.1955 67.4755L83.1955 79.0842" stroke="black" stroke-opacity="0.16" stroke-width="1.93402"/>
<path d="M83.1955 202.427L83.1955 214.035" stroke="black" stroke-opacity="0.16" stroke-width="1.93402"/>
<path d="M83.1955 427.345L83.1955 438.954" stroke="black" stroke-opacity="0.16" stroke-width="1.93402"/>
<path d="M83.1955 359.869L83.1955 371.478" stroke="black" stroke-opacity="0.16" stroke-width="1.93402"/>
<path d="M83.1955 89.9676L83.1955 101.576" stroke="black" stroke-opacity="0.16" stroke-width="1.93402"/>
<path d="M83.1955 224.919L83.1955 236.527" stroke="black" stroke-opacity="0.16" stroke-width="1.93402"/>
<path d="M83.1955 449.837L83.1955 461.446" stroke="black" stroke-opacity="0.16" stroke-width="1.93402"/>
<path d="M83.1957 123.101C80.5243 123.101 78.3587 120.935 78.3587 118.264C78.3587 115.592 80.5243 113.427 83.1957 113.427C85.867 113.427 88.0326 115.592 88.0326 118.264C88.0326 120.935 85.867 123.101 83.1957 123.101Z" stroke="black" stroke-opacity="0.16" stroke-width="1.93402"/>
<path d="M83.1957 280.543C80.5243 280.543 78.3587 278.378 78.3587 275.707C78.3587 273.035 80.5243 270.87 83.1957 270.87C85.867 270.87 88.0326 273.035 88.0326 275.707C88.0326 278.378 85.867 280.543 83.1957 280.543Z" stroke="black" stroke-opacity="0.16" stroke-width="1.93402"/>
<path d="M83.1957 258.052C80.5243 258.052 78.3587 255.886 78.3587 253.215C78.3587 250.543 80.5243 248.378 83.1957 248.378C85.867 248.378 88.0326 250.543 88.0326 253.215C88.0326 255.886 85.867 258.052 83.1957 258.052Z" stroke="black" stroke-opacity="0.16" stroke-width="1.93402"/>
<path d="M373.413 0V11.6087" stroke="black" stroke-opacity="0.16" stroke-width="1.93402"/>
<path d="M373.413 134.951V146.56" stroke="black" stroke-opacity="0.16" stroke-width="1.93402"/>
<path d="M373.413 292.394V304.003" stroke="black" stroke-opacity="0.16" stroke-width="1.93402"/>
<path d="M373.413 22.4919V34.1006" stroke="black" stroke-opacity="0.16" stroke-width="1.93402"/>
<path d="M373.413 157.443V169.052" stroke="black" stroke-opacity="0.16" stroke-width="1.93402"/>
<path d="M373.413 382.361V393.97" stroke="black" stroke-opacity="0.16" stroke-width="1.93402"/>
<path d="M373.413 314.886V326.495" stroke="black" stroke-opacity="0.16" stroke-width="1.93402"/>
<path d="M373.413 44.9836V56.5923" stroke="black" stroke-opacity="0.16" stroke-width="1.93402"/>
<path d="M373.413 179.935V191.544" stroke="black" stroke-opacity="0.16" stroke-width="1.93402"/>
<path d="M373.413 404.853V416.462" stroke="black" stroke-opacity="0.16" stroke-width="1.93402"/>
<path d="M373.413 337.378V348.986" stroke="black" stroke-opacity="0.16" stroke-width="1.93402"/>
<path d="M373.413 67.4755V79.0842" stroke="black" stroke-opacity="0.16" stroke-width="1.93402"/>
<path d="M373.413 202.427V214.035" stroke="black" stroke-opacity="0.16" stroke-width="1.93402"/>
<path d="M373.413 427.345V438.954" stroke="black" stroke-opacity="0.16" stroke-width="1.93402"/>
<path d="M373.413 359.869V371.478" stroke="black" stroke-opacity="0.16" stroke-width="1.93402"/>
<path d="M373.413 89.9676V101.576" stroke="black" stroke-opacity="0.16" stroke-width="1.93402"/>
<path d="M373.413 224.919V236.527" stroke="black" stroke-opacity="0.16" stroke-width="1.93402"/>
<path d="M373.413 449.837V461.446" stroke="black" stroke-opacity="0.16" stroke-width="1.93402"/>
<path d="M373.413 123.101C376.084 123.101 378.25 120.935 378.25 118.264C378.25 115.592 376.084 113.427 373.413 113.427C370.742 113.427 368.576 115.592 368.576 118.264C368.576 120.935 370.742 123.101 373.413 123.101Z" stroke="black" stroke-opacity="0.16" stroke-width="1.93402"/>
<path d="M373.413 280.543C376.084 280.543 378.25 278.378 378.25 275.707C378.25 273.035 376.084 270.87 373.413 270.87C370.742 270.87 368.576 273.035 368.576 275.707C368.576 278.378 370.742 280.543 373.413 280.543Z" stroke="black" stroke-opacity="0.16" stroke-width="1.93402"/>
<path d="M373.413 258.052C376.084 258.052 378.25 255.886 378.25 253.215C378.25 250.543 376.084 248.378 373.413 248.378C370.742 248.378 368.576 250.543 368.576 253.215C368.576 255.886 370.742 258.052 373.413 258.052Z" stroke="black" stroke-opacity="0.16" stroke-width="1.93402"/>
<path d="M199.283 0L199.283 11.6087" stroke="black" stroke-opacity="0.16" stroke-width="1.93402"/>
<path d="M199.283 134.951L199.283 146.56" stroke="black" stroke-opacity="0.16" stroke-width="1.93402"/>
<path d="M199.283 292.394L199.283 304.003" stroke="black" stroke-opacity="0.16" stroke-width="1.93402"/>
<path d="M199.283 22.4919L199.283 34.1005" stroke="black" stroke-opacity="0.16" stroke-width="1.93402"/>
<path d="M199.283 157.443L199.283 169.052" stroke="black" stroke-opacity="0.16" stroke-width="1.93402"/>
<path d="M199.283 382.361L199.283 393.97" stroke="black" stroke-opacity="0.16" stroke-width="1.93402"/>
<path d="M199.283 314.886L199.283 326.495" stroke="black" stroke-opacity="0.16" stroke-width="1.93402"/>
<path d="M199.283 44.9836L199.283 56.5923" stroke="black" stroke-opacity="0.16" stroke-width="1.93402"/>
<path d="M199.283 179.935L199.283 191.544" stroke="black" stroke-opacity="0.16" stroke-width="1.93402"/>
<path d="M199.283 404.853L199.283 416.462" stroke="black" stroke-opacity="0.16" stroke-width="1.93402"/>
<path d="M199.283 337.378L199.283 348.986" stroke="black" stroke-opacity="0.16" stroke-width="1.93402"/>
<path d="M199.283 67.4755L199.283 79.0842" stroke="black" stroke-opacity="0.16" stroke-width="1.93402"/>
<path d="M199.283 202.427L199.283 214.035" stroke="black" stroke-opacity="0.16" stroke-width="1.93402"/>
<path d="M199.283 427.345L199.283 438.954" stroke="black" stroke-opacity="0.16" stroke-width="1.93402"/>
<path d="M199.283 359.869L199.283 371.478" stroke="black" stroke-opacity="0.16" stroke-width="1.93402"/>
<path d="M199.283 89.9676L199.283 101.576" stroke="black" stroke-opacity="0.16" stroke-width="1.93402"/>
<path d="M199.283 224.919L199.283 236.527" stroke="black" stroke-opacity="0.16" stroke-width="1.93402"/>
<path d="M199.283 449.837L199.283 461.446" stroke="black" stroke-opacity="0.16" stroke-width="1.93402"/>
<path d="M199.283 123.101C196.612 123.101 194.446 120.935 194.446 118.264C194.446 115.592 196.612 113.427 199.283 113.427C201.954 113.427 204.12 115.592 204.12 118.264C204.12 120.935 201.954 123.101 199.283 123.101Z" stroke="black" stroke-opacity="0.16" stroke-width="1.93402"/>
<path d="M199.283 280.543C196.612 280.543 194.446 278.378 194.446 275.707C194.446 273.035 196.612 270.87 199.283 270.87C201.954 270.87 204.12 273.035 204.12 275.707C204.12 278.378 201.954 280.543 199.283 280.543Z" stroke="black" stroke-opacity="0.16" stroke-width="1.93402"/>
<path d="M199.283 258.052C196.612 258.052 194.446 255.886 194.446 253.215C194.446 250.543 196.612 248.378 199.283 248.378C201.954 248.378 204.12 250.543 204.12 253.215C204.12 255.886 201.954 258.052 199.283 258.052Z" stroke="black" stroke-opacity="0.16" stroke-width="1.93402"/>
<path d="M276.674 0L276.674 11.6087" stroke="black" stroke-opacity="0.16" stroke-width="1.93402"/>
<path d="M276.674 134.951L276.674 146.56" stroke="black" stroke-opacity="0.16" stroke-width="1.93402"/>
<path d="M276.674 292.394L276.674 304.003" stroke="black" stroke-opacity="0.16" stroke-width="1.93402"/>
<path d="M276.674 22.4919L276.674 34.1005" stroke="black" stroke-opacity="0.16" stroke-width="1.93402"/>
<path d="M276.674 157.443L276.674 169.052" stroke="black" stroke-opacity="0.16" stroke-width="1.93402"/>
<path d="M276.674 382.361L276.674 393.97" stroke="black" stroke-opacity="0.16" stroke-width="1.93402"/>
<path d="M276.674 314.886L276.674 326.495" stroke="black" stroke-opacity="0.16" stroke-width="1.93402"/>
<path d="M276.674 44.9836L276.674 56.5923" stroke="black" stroke-opacity="0.16" stroke-width="1.93402"/>
<path d="M276.674 179.935L276.674 191.544" stroke="black" stroke-opacity="0.16" stroke-width="1.93402"/>
<path d="M276.674 404.853L276.674 416.462" stroke="black" stroke-opacity="0.16" stroke-width="1.93402"/>
<path d="M276.674 337.378L276.674 348.986" stroke="black" stroke-opacity="0.16" stroke-width="1.93402"/>
<path d="M276.674 67.4755L276.674 79.0842" stroke="black" stroke-opacity="0.16" stroke-width="1.93402"/>
<path d="M276.674 202.427L276.674 214.035" stroke="black" stroke-opacity="0.16" stroke-width="1.93402"/>
<path d="M276.674 427.345L276.674 438.954" stroke="black" stroke-opacity="0.16" stroke-width="1.93402"/>
<path d="M276.674 359.869L276.674 371.478" stroke="black" stroke-opacity="0.16" stroke-width="1.93402"/>
<path d="M276.674 89.9676L276.674 101.576" stroke="black" stroke-opacity="0.16" stroke-width="1.93402"/>
<path d="M276.674 224.919L276.674 236.527" stroke="black" stroke-opacity="0.16" stroke-width="1.93402"/>
<path d="M276.674 449.837L276.674 461.446" stroke="black" stroke-opacity="0.16" stroke-width="1.93402"/>
<path d="M276.674 123.101C274.003 123.101 271.837 120.935 271.837 118.264C271.837 115.592 274.003 113.427 276.674 113.427C279.346 113.427 281.511 115.592 281.511 118.264C281.511 120.935 279.346 123.101 276.674 123.101Z" stroke="black" stroke-opacity="0.16" stroke-width="1.93402"/>
<path d="M276.674 280.543C274.003 280.543 271.837 278.378 271.837 275.707C271.837 273.035 274.003 270.87 276.674 270.87C279.346 270.87 281.511 273.035 281.511 275.707C281.511 278.378 279.346 280.543 276.674 280.543Z" stroke="black" stroke-opacity="0.16" stroke-width="1.93402"/>
<path d="M276.674 258.052C274.003 258.052 271.837 255.886 271.837 253.215C271.837 250.543 274.003 248.378 276.674 248.378C279.346 248.378 281.511 250.543 281.511 253.215C281.511 255.886 279.346 258.052 276.674 258.052Z" stroke="black" stroke-opacity="0.16" stroke-width="1.93402"/>
<path d="M528.195 0V11.6087" stroke="black" stroke-opacity="0.16" stroke-width="1.93402"/>
<path d="M528.195 134.951V146.56" stroke="black" stroke-opacity="0.16" stroke-width="1.93402"/>
<path d="M528.195 292.394V304.003" stroke="black" stroke-opacity="0.16" stroke-width="1.93402"/>
<path d="M528.195 22.4919V34.1006" stroke="black" stroke-opacity="0.16" stroke-width="1.93402"/>
<path d="M528.195 157.443V169.052" stroke="black" stroke-opacity="0.16" stroke-width="1.93402"/>
<path d="M528.195 382.361V393.97" stroke="black" stroke-opacity="0.16" stroke-width="1.93402"/>
<path d="M528.195 314.886V326.495" stroke="black" stroke-opacity="0.16" stroke-width="1.93402"/>
<path d="M528.195 44.9836V56.5923" stroke="black" stroke-opacity="0.16" stroke-width="1.93402"/>
<path d="M528.195 179.935V191.544" stroke="black" stroke-opacity="0.16" stroke-width="1.93402"/>
<path d="M528.195 404.853V416.462" stroke="black" stroke-opacity="0.16" stroke-width="1.93402"/>
<path d="M528.195 337.378V348.986" stroke="black" stroke-opacity="0.16" stroke-width="1.93402"/>
<path d="M528.195 67.4755V79.0842" stroke="black" stroke-opacity="0.16" stroke-width="1.93402"/>
<path d="M528.195 202.427V214.035" stroke="black" stroke-opacity="0.16" stroke-width="1.93402"/>
<path d="M528.195 427.345V438.954" stroke="black" stroke-opacity="0.16" stroke-width="1.93402"/>
<path d="M528.195 359.869V371.478" stroke="black" stroke-opacity="0.16" stroke-width="1.93402"/>
<path d="M528.195 89.9676V101.576" stroke="black" stroke-opacity="0.16" stroke-width="1.93402"/>
<path d="M528.195 224.919V236.527" stroke="black" stroke-opacity="0.16" stroke-width="1.93402"/>
<path d="M528.195 449.837V461.446" stroke="black" stroke-opacity="0.16" stroke-width="1.93402"/>
<path d="M528.196 123.101C530.867 123.101 533.033 120.935 533.033 118.264C533.033 115.592 530.867 113.427 528.196 113.427C525.524 113.427 523.359 115.592 523.359 118.264C523.359 120.935 525.524 123.101 528.196 123.101Z" stroke="black" stroke-opacity="0.16" stroke-width="1.93402"/>
<path d="M528.196 280.543C530.867 280.543 533.033 278.378 533.033 275.707C533.033 273.035 530.867 270.87 528.196 270.87C525.524 270.87 523.359 273.035 523.359 275.707C523.359 278.378 525.524 280.543 528.196 280.543Z" stroke="black" stroke-opacity="0.16" stroke-width="1.93402"/>
<path d="M528.196 258.052C530.867 258.052 533.033 255.886 533.033 253.215C533.033 250.543 530.867 248.378 528.196 248.378C525.524 248.378 523.359 250.543 523.359 253.215C523.359 255.886 525.524 258.052 528.196 258.052Z" stroke="black" stroke-opacity="0.16" stroke-width="1.93402"/>
<path d="M44.4999 0L44.4999 11.6087" stroke="black" stroke-opacity="0.16" stroke-width="1.93402"/>
<path d="M44.4999 134.951L44.4999 146.56" stroke="black" stroke-opacity="0.16" stroke-width="1.93402"/>
<path d="M44.4999 292.394L44.4999 304.003" stroke="black" stroke-opacity="0.16" stroke-width="1.93402"/>
<path d="M44.4999 22.4919L44.4999 34.1005" stroke="black" stroke-opacity="0.16" stroke-width="1.93402"/>
<path d="M44.4999 157.443L44.4999 169.052" stroke="black" stroke-opacity="0.16" stroke-width="1.93402"/>
<path d="M44.4999 382.361L44.4999 393.97" stroke="black" stroke-opacity="0.16" stroke-width="1.93402"/>
<path d="M44.4999 314.886L44.4999 326.495" stroke="black" stroke-opacity="0.16" stroke-width="1.93402"/>
<path d="M44.4999 44.9836L44.4999 56.5923" stroke="black" stroke-opacity="0.16" stroke-width="1.93402"/>
<path d="M44.4999 179.935L44.4999 191.544" stroke="black" stroke-opacity="0.16" stroke-width="1.93402"/>
<path d="M44.4999 404.853L44.4999 416.462" stroke="black" stroke-opacity="0.16" stroke-width="1.93402"/>
<path d="M44.4999 337.378L44.4999 348.986" stroke="black" stroke-opacity="0.16" stroke-width="1.93402"/>
<path d="M44.4999 67.4755L44.4999 79.0842" stroke="black" stroke-opacity="0.16" stroke-width="1.93402"/>
<path d="M44.4999 202.427L44.4999 214.035" stroke="black" stroke-opacity="0.16" stroke-width="1.93402"/>
<path d="M44.4999 427.345L44.4999 438.954" stroke="black" stroke-opacity="0.16" stroke-width="1.93402"/>
<path d="M44.4999 359.869L44.4999 371.478" stroke="black" stroke-opacity="0.16" stroke-width="1.93402"/>
<path d="M44.4999 89.9676L44.4999 101.576" stroke="black" stroke-opacity="0.16" stroke-width="1.93402"/>
<path d="M44.4999 224.919L44.4999 236.527" stroke="black" stroke-opacity="0.16" stroke-width="1.93402"/>
<path d="M44.4999 449.837L44.4999 461.446" stroke="black" stroke-opacity="0.16" stroke-width="1.93402"/>
<path d="M44.5001 123.101C41.8287 123.101 39.6631 120.935 39.6631 118.264C39.6631 115.592 41.8287 113.427 44.5001 113.427C47.1714 113.427 49.337 115.592 49.337 118.264C49.337 120.935 47.1714 123.101 44.5001 123.101Z" stroke="black" stroke-opacity="0.16" stroke-width="1.93402"/>
<path d="M44.5001 280.543C41.8287 280.543 39.6631 278.378 39.6631 275.707C39.6631 273.035 41.8287 270.87 44.5001 270.87C47.1714 270.87 49.337 273.035 49.337 275.707C49.337 278.378 47.1714 280.543 44.5001 280.543Z" stroke="black" stroke-opacity="0.16" stroke-width="1.93402"/>
<path d="M44.5001 258.052C41.8287 258.052 39.6631 255.886 39.6631 253.215C39.6631 250.543 41.8287 248.378 44.5001 248.378C47.1714 248.378 49.337 250.543 49.337 253.215C49.337 255.886 47.1714 258.052 44.5001 258.052Z" stroke="black" stroke-opacity="0.16" stroke-width="1.93402"/>
<path d="M412.109 0V11.6087" stroke="black" stroke-opacity="0.16" stroke-width="1.93402"/>
<path d="M412.109 134.951V146.56" stroke="black" stroke-opacity="0.16" stroke-width="1.93402"/>
<path d="M412.109 292.394V304.003" stroke="black" stroke-opacity="0.16" stroke-width="1.93402"/>
<path d="M412.109 22.4919V34.1006" stroke="black" stroke-opacity="0.16" stroke-width="1.93402"/>
<path d="M412.109 157.443V169.052" stroke="black" stroke-opacity="0.16" stroke-width="1.93402"/>
<path d="M412.109 382.361V393.97" stroke="black" stroke-opacity="0.16" stroke-width="1.93402"/>
<path d="M412.109 314.886V326.495" stroke="black" stroke-opacity="0.16" stroke-width="1.93402"/>
<path d="M412.109 44.9836V56.5923" stroke="black" stroke-opacity="0.16" stroke-width="1.93402"/>
<path d="M412.109 179.935V191.544" stroke="black" stroke-opacity="0.16" stroke-width="1.93402"/>
<path d="M412.109 404.853V416.462" stroke="black" stroke-opacity="0.16" stroke-width="1.93402"/>
<path d="M412.109 337.378V348.986" stroke="black" stroke-opacity="0.16" stroke-width="1.93402"/>
<path d="M412.109 67.4755V79.0842" stroke="black" stroke-opacity="0.16" stroke-width="1.93402"/>
<path d="M412.109 202.427V214.035" stroke="black" stroke-opacity="0.16" stroke-width="1.93402"/>
<path d="M412.109 427.345V438.954" stroke="black" stroke-opacity="0.16" stroke-width="1.93402"/>
<path d="M412.109 359.869V371.478" stroke="black" stroke-opacity="0.16" stroke-width="1.93402"/>
<path d="M412.109 89.9676V101.576" stroke="black" stroke-opacity="0.16" stroke-width="1.93402"/>
<path d="M412.109 224.919V236.527" stroke="black" stroke-opacity="0.16" stroke-width="1.93402"/>
<path d="M412.109 449.837V461.446" stroke="black" stroke-opacity="0.16" stroke-width="1.93402"/>
<path d="M412.109 123.101C414.78 123.101 416.946 120.935 416.946 118.264C416.946 115.592 414.78 113.427 412.109 113.427C409.438 113.427 407.272 115.592 407.272 118.264C407.272 120.935 409.438 123.101 412.109 123.101Z" stroke="black" stroke-opacity="0.16" stroke-width="1.93402"/>
<path d="M412.109 280.543C414.78 280.543 416.946 278.378 416.946 275.707C416.946 273.035 414.78 270.87 412.109 270.87C409.438 270.87 407.272 273.035 407.272 275.707C407.272 278.378 409.438 280.543 412.109 280.543Z" stroke="black" stroke-opacity="0.16" stroke-width="1.93402"/>
<path d="M412.109 258.052C414.78 258.052 416.946 255.886 416.946 253.215C416.946 250.543 414.78 248.378 412.109 248.378C409.438 248.378 407.272 250.543 407.272 253.215C407.272 255.886 409.438 258.052 412.109 258.052Z" stroke="black" stroke-opacity="0.16" stroke-width="1.93402"/>
<path d="M160.587 0L160.587 11.6087" stroke="black" stroke-opacity="0.16" stroke-width="1.93402"/>
<path d="M160.587 134.951L160.587 146.56" stroke="black" stroke-opacity="0.16" stroke-width="1.93402"/>
<path d="M160.587 292.394L160.587 304.003" stroke="black" stroke-opacity="0.16" stroke-width="1.93402"/>
<path d="M160.587 22.4919L160.587 34.1005" stroke="black" stroke-opacity="0.16" stroke-width="1.93402"/>
<path d="M160.587 157.443L160.587 169.052" stroke="black" stroke-opacity="0.16" stroke-width="1.93402"/>
<path d="M160.587 382.361L160.587 393.97" stroke="black" stroke-opacity="0.16" stroke-width="1.93402"/>
<path d="M160.587 314.886L160.587 326.495" stroke="black" stroke-opacity="0.16" stroke-width="1.93402"/>
<path d="M160.587 44.9836L160.587 56.5923" stroke="black" stroke-opacity="0.16" stroke-width="1.93402"/>
<path d="M160.587 179.935L160.587 191.544" stroke="black" stroke-opacity="0.16" stroke-width="1.93402"/>
<path d="M160.587 404.853L160.587 416.462" stroke="black" stroke-opacity="0.16" stroke-width="1.93402"/>
<path d="M160.587 337.378L160.587 348.986" stroke="black" stroke-opacity="0.16" stroke-width="1.93402"/>
<path d="M160.587 67.4755L160.587 79.0842" stroke="black" stroke-opacity="0.16" stroke-width="1.93402"/>
<path d="M160.587 202.427L160.587 214.035" stroke="black" stroke-opacity="0.16" stroke-width="1.93402"/>
<path d="M160.587 427.345L160.587 438.954" stroke="black" stroke-opacity="0.16" stroke-width="1.93402"/>
<path d="M160.587 359.869L160.587 371.478" stroke="black" stroke-opacity="0.16" stroke-width="1.93402"/>
<path d="M160.587 89.9676L160.587 101.576" stroke="black" stroke-opacity="0.16" stroke-width="1.93402"/>
<path d="M160.587 224.919L160.587 236.527" stroke="black" stroke-opacity="0.16" stroke-width="1.93402"/>
<path d="M160.587 449.837L160.587 461.446" stroke="black" stroke-opacity="0.16" stroke-width="1.93402"/>
<path d="M160.587 123.101C157.916 123.101 155.75 120.935 155.75 118.264C155.75 115.592 157.916 113.427 160.587 113.427C163.259 113.427 165.424 115.592 165.424 118.264C165.424 120.935 163.259 123.101 160.587 123.101Z" stroke="black" stroke-opacity="0.16" stroke-width="1.93402"/>
<path d="M160.587 280.543C157.916 280.543 155.75 278.378 155.75 275.707C155.75 273.035 157.916 270.87 160.587 270.87C163.259 270.87 165.424 273.035 165.424 275.707C165.424 278.378 163.259 280.543 160.587 280.543Z" stroke="black" stroke-opacity="0.16" stroke-width="1.93402"/>
<path d="M160.587 258.052C157.916 258.052 155.75 255.886 155.75 253.215C155.75 250.543 157.916 248.378 160.587 248.378C163.259 248.378 165.424 250.543 165.424 253.215C165.424 255.886 163.259 258.052 160.587 258.052Z" stroke="black" stroke-opacity="0.16" stroke-width="1.93402"/>
<path d="M237.978 0L237.978 11.6087" stroke="black" stroke-opacity="0.16" stroke-width="1.93402"/>
<path d="M237.978 134.951L237.978 146.56" stroke="black" stroke-opacity="0.16" stroke-width="1.93402"/>
<path d="M237.978 292.394L237.978 304.003" stroke="black" stroke-opacity="0.16" stroke-width="1.93402"/>
<path d="M237.978 22.4919L237.978 34.1005" stroke="black" stroke-opacity="0.16" stroke-width="1.93402"/>
<path d="M237.978 157.443L237.978 169.052" stroke="black" stroke-opacity="0.16" stroke-width="1.93402"/>
<path d="M237.978 382.361L237.978 393.97" stroke="black" stroke-opacity="0.16" stroke-width="1.93402"/>
<path d="M237.978 314.886L237.978 326.495" stroke="black" stroke-opacity="0.16" stroke-width="1.93402"/>
<path d="M237.978 44.9836L237.978 56.5923" stroke="black" stroke-opacity="0.16" stroke-width="1.93402"/>
<path d="M237.978 179.935L237.978 191.544" stroke="black" stroke-opacity="0.16" stroke-width="1.93402"/>
<path d="M237.978 404.853L237.978 416.462" stroke="black" stroke-opacity="0.16" stroke-width="1.93402"/>
<path d="M237.978 337.378L237.978 348.986" stroke="black" stroke-opacity="0.16" stroke-width="1.93402"/>
<path d="M237.978 67.4755L237.978 79.0842" stroke="black" stroke-opacity="0.16" stroke-width="1.93402"/>
<path d="M237.978 202.427L237.978 214.035" stroke="black" stroke-opacity="0.16" stroke-width="1.93402"/>
<path d="M237.978 427.345L237.978 438.954" stroke="black" stroke-opacity="0.16" stroke-width="1.93402"/>
<path d="M237.978 359.869L237.978 371.478" stroke="black" stroke-opacity="0.16" stroke-width="1.93402"/>
<path d="M237.978 89.9676L237.978 101.576" stroke="black" stroke-opacity="0.16" stroke-width="1.93402"/>
<path d="M237.978 224.919L237.978 236.527" stroke="black" stroke-opacity="0.16" stroke-width="1.93402"/>
<path d="M237.978 449.837L237.978 461.446" stroke="black" stroke-opacity="0.16" stroke-width="1.93402"/>
<path d="M237.978 123.101C235.307 123.101 233.141 120.935 233.141 118.264C233.141 115.592 235.307 113.427 237.978 113.427C240.65 113.427 242.815 115.592 242.815 118.264C242.815 120.935 240.65 123.101 237.978 123.101Z" stroke="black" stroke-opacity="0.16" stroke-width="1.93402"/>
<path d="M237.978 280.543C235.307 280.543 233.141 278.378 233.141 275.707C233.141 273.035 235.307 270.87 237.978 270.87C240.65 270.87 242.815 273.035 242.815 275.707C242.815 278.378 240.65 280.543 237.978 280.543Z" stroke="black" stroke-opacity="0.16" stroke-width="1.93402"/>
<path d="M237.978 258.052C235.307 258.052 233.141 255.886 233.141 253.215C233.141 250.543 235.307 248.378 237.978 248.378C240.65 248.378 242.815 250.543 242.815 253.215C242.815 255.886 240.65 258.052 237.978 258.052Z" stroke="black" stroke-opacity="0.16" stroke-width="1.93402"/>
<path d="M5.80428 0V11.6087" stroke="black" stroke-opacity="0.16" stroke-width="1.93402"/>
<path d="M5.80428 134.951V146.56" stroke="black" stroke-opacity="0.16" stroke-width="1.93402"/>
<path d="M5.80428 292.394V304.003" stroke="black" stroke-opacity="0.16" stroke-width="1.93402"/>
<path d="M5.80428 22.4919V34.1006" stroke="black" stroke-opacity="0.16" stroke-width="1.93402"/>
<path d="M5.80428 157.443V169.052" stroke="black" stroke-opacity="0.16" stroke-width="1.93402"/>
<path d="M5.80428 382.361V393.97" stroke="black" stroke-opacity="0.16" stroke-width="1.93402"/>
<path d="M5.80428 314.886V326.495" stroke="black" stroke-opacity="0.16" stroke-width="1.93402"/>
<path d="M5.80428 44.9836V56.5923" stroke="black" stroke-opacity="0.16" stroke-width="1.93402"/>
<path d="M5.80428 179.935V191.544" stroke="black" stroke-opacity="0.16" stroke-width="1.93402"/>
<path d="M5.80428 404.853V416.462" stroke="black" stroke-opacity="0.16" stroke-width="1.93402"/>
<path d="M5.80428 337.378V348.986" stroke="black" stroke-opacity="0.16" stroke-width="1.93402"/>
<path d="M5.80428 67.4755V79.0842" stroke="black" stroke-opacity="0.16" stroke-width="1.93402"/>
<path d="M5.80428 202.427V214.035" stroke="black" stroke-opacity="0.16" stroke-width="1.93402"/>
<path d="M5.80428 427.345V438.954" stroke="black" stroke-opacity="0.16" stroke-width="1.93402"/>
<path d="M5.80428 359.869V371.478" stroke="black" stroke-opacity="0.16" stroke-width="1.93402"/>
<path d="M5.80428 89.9676V101.576" stroke="black" stroke-opacity="0.16" stroke-width="1.93402"/>
<path d="M5.80428 224.919V236.527" stroke="black" stroke-opacity="0.16" stroke-width="1.93402"/>
<path d="M5.80428 449.837V461.446" stroke="black" stroke-opacity="0.16" stroke-width="1.93402"/>
<path d="M5.80437 123.101C8.47575 123.101 10.6413 120.935 10.6413 118.264C10.6413 115.592 8.47575 113.427 5.80437 113.427C3.133 113.427 0.967421 115.592 0.967421 118.264C0.967421 120.935 3.133 123.101 5.80437 123.101Z" stroke="black" stroke-opacity="0.16" stroke-width="1.93402"/>
<path d="M5.80437 280.543C8.47575 280.543 10.6413 278.378 10.6413 275.707C10.6413 273.035 8.47575 270.87 5.80437 270.87C3.133 270.87 0.967421 273.035 0.967421 275.707C0.967421 278.378 3.133 280.543 5.80437 280.543Z" stroke="black" stroke-opacity="0.16" stroke-width="1.93402"/>
<path d="M5.80437 258.052C8.47575 258.052 10.6413 255.886 10.6413 253.215C10.6413 250.543 8.47575 248.378 5.80437 248.378C3.133 248.378 0.967421 250.543 0.967421 253.215C0.967421 255.886 3.133 258.052 5.80437 258.052Z" stroke="black" stroke-opacity="0.16" stroke-width="1.93402"/>
<path d="M354.065 0L354.065 11.6087" stroke="black" stroke-opacity="0.16" stroke-width="1.93402"/>
<path d="M354.065 134.951L354.065 146.56" stroke="black" stroke-opacity="0.16" stroke-width="1.93402"/>
<path d="M354.065 292.394L354.065 304.003" stroke="black" stroke-opacity="0.16" stroke-width="1.93402"/>
<path d="M354.065 22.4919L354.065 34.1005" stroke="black" stroke-opacity="0.16" stroke-width="1.93402"/>
<path d="M354.065 157.443L354.065 169.052" stroke="black" stroke-opacity="0.16" stroke-width="1.93402"/>
<path d="M354.065 382.361L354.065 393.97" stroke="black" stroke-opacity="0.16" stroke-width="1.93402"/>
<path d="M354.065 314.886L354.065 326.495" stroke="black" stroke-opacity="0.16" stroke-width="1.93402"/>
<path d="M354.065 44.9836L354.065 56.5923" stroke="black" stroke-opacity="0.16" stroke-width="1.93402"/>
<path d="M354.065 179.935L354.065 191.544" stroke="black" stroke-opacity="0.16" stroke-width="1.93402"/>
<path d="M354.065 404.853L354.065 416.462" stroke="black" stroke-opacity="0.16" stroke-width="1.93402"/>
<path d="M354.065 337.378L354.065 348.986" stroke="black" stroke-opacity="0.16" stroke-width="1.93402"/>
<path d="M354.065 67.4755L354.065 79.0842" stroke="black" stroke-opacity="0.16" stroke-width="1.93402"/>
<path d="M354.065 202.427L354.065 214.035" stroke="black" stroke-opacity="0.16" stroke-width="1.93402"/>
<path d="M354.065 427.345L354.065 438.954" stroke="black" stroke-opacity="0.16" stroke-width="1.93402"/>
<path d="M354.065 359.869L354.065 371.478" stroke="black" stroke-opacity="0.16" stroke-width="1.93402"/>
<path d="M354.065 89.9676L354.065 101.576" stroke="black" stroke-opacity="0.16" stroke-width="1.93402"/>
<path d="M354.065 224.919L354.065 236.527" stroke="black" stroke-opacity="0.16" stroke-width="1.93402"/>
<path d="M354.065 449.837L354.065 461.446" stroke="black" stroke-opacity="0.16" stroke-width="1.93402"/>
<path d="M354.065 123.101C351.394 123.101 349.229 120.935 349.229 118.264C349.229 115.592 351.394 113.427 354.065 113.427C356.737 113.427 358.902 115.592 358.902 118.264C358.902 120.935 356.737 123.101 354.065 123.101Z" stroke="black" stroke-opacity="0.16" stroke-width="1.93402"/>
<path d="M354.065 280.543C351.394 280.543 349.229 278.378 349.229 275.707C349.229 273.035 351.394 270.87 354.065 270.87C356.737 270.87 358.902 273.035 358.902 275.707C358.902 278.378 356.737 280.543 354.065 280.543Z" stroke="black" stroke-opacity="0.16" stroke-width="1.93402"/>
<path d="M354.065 258.052C351.394 258.052 349.229 255.886 349.229 253.215C349.229 250.543 351.394 248.378 354.065 248.378C356.737 248.378 358.902 250.543 358.902 253.215C358.902 255.886 356.737 258.052 354.065 258.052Z" stroke="black" stroke-opacity="0.16" stroke-width="1.93402"/>
<path d="M450.804 0V11.6087" stroke="black" stroke-opacity="0.16" stroke-width="1.93402"/>
<path d="M450.804 134.951V146.56" stroke="black" stroke-opacity="0.16" stroke-width="1.93402"/>
<path d="M450.804 292.394V304.003" stroke="black" stroke-opacity="0.16" stroke-width="1.93402"/>
<path d="M450.804 22.4919V34.1006" stroke="black" stroke-opacity="0.16" stroke-width="1.93402"/>
<path d="M450.804 157.443V169.052" stroke="black" stroke-opacity="0.16" stroke-width="1.93402"/>
<path d="M450.804 382.361V393.97" stroke="black" stroke-opacity="0.16" stroke-width="1.93402"/>
<path d="M450.804 314.886V326.495" stroke="black" stroke-opacity="0.16" stroke-width="1.93402"/>
<path d="M450.804 44.9836V56.5923" stroke="black" stroke-opacity="0.16" stroke-width="1.93402"/>
<path d="M450.804 179.935V191.544" stroke="black" stroke-opacity="0.16" stroke-width="1.93402"/>
<path d="M450.804 404.853V416.462" stroke="black" stroke-opacity="0.16" stroke-width="1.93402"/>
<path d="M450.804 337.378V348.986" stroke="black" stroke-opacity="0.16" stroke-width="1.93402"/>
<path d="M450.804 67.4755V79.0842" stroke="black" stroke-opacity="0.16" stroke-width="1.93402"/>
<path d="M450.804 202.427V214.035" stroke="black" stroke-opacity="0.16" stroke-width="1.93402"/>
<path d="M450.804 427.345V438.954" stroke="black" stroke-opacity="0.16" stroke-width="1.93402"/>
<path d="M450.804 359.869V371.478" stroke="black" stroke-opacity="0.16" stroke-width="1.93402"/>
<path d="M450.804 89.9676V101.576" stroke="black" stroke-opacity="0.16" stroke-width="1.93402"/>
<path d="M450.804 224.919V236.527" stroke="black" stroke-opacity="0.16" stroke-width="1.93402"/>
<path d="M450.804 449.837V461.446" stroke="black" stroke-opacity="0.16" stroke-width="1.93402"/>
<path d="M450.804 123.101C453.476 123.101 455.641 120.935 455.641 118.264C455.641 115.592 453.476 113.427 450.804 113.427C448.133 113.427 445.967 115.592 445.967 118.264C445.967 120.935 448.133 123.101 450.804 123.101Z" stroke="black" stroke-opacity="0.16" stroke-width="1.93402"/>
<path d="M450.804 280.543C453.476 280.543 455.641 278.378 455.641 275.707C455.641 273.035 453.476 270.87 450.804 270.87C448.133 270.87 445.967 273.035 445.967 275.707C445.967 278.378 448.133 280.543 450.804 280.543Z" stroke="black" stroke-opacity="0.16" stroke-width="1.93402"/>
<path d="M450.804 258.052C453.476 258.052 455.641 255.886 455.641 253.215C455.641 250.543 453.476 248.378 450.804 248.378C448.133 248.378 445.967 250.543 445.967 253.215C445.967 255.886 448.133 258.052 450.804 258.052Z" stroke="black" stroke-opacity="0.16" stroke-width="1.93402"/>
<path d="M121.892 0L121.892 11.6087" stroke="black" stroke-opacity="0.16" stroke-width="1.93402"/>
<path d="M121.892 134.951L121.892 146.56" stroke="black" stroke-opacity="0.16" stroke-width="1.93402"/>
<path d="M121.892 292.394L121.892 304.003" stroke="black" stroke-opacity="0.16" stroke-width="1.93402"/>
<path d="M121.892 22.4919L121.892 34.1005" stroke="black" stroke-opacity="0.16" stroke-width="1.93402"/>
<path d="M121.892 157.443L121.892 169.052" stroke="black" stroke-opacity="0.16" stroke-width="1.93402"/>
<path d="M121.892 382.361L121.892 393.97" stroke="black" stroke-opacity="0.16" stroke-width="1.93402"/>
<path d="M121.892 314.886L121.892 326.495" stroke="black" stroke-opacity="0.16" stroke-width="1.93402"/>
<path d="M121.892 44.9836L121.892 56.5923" stroke="black" stroke-opacity="0.16" stroke-width="1.93402"/>
<path d="M121.892 179.935L121.892 191.544" stroke="black" stroke-opacity="0.16" stroke-width="1.93402"/>
<path d="M121.892 404.853L121.892 416.462" stroke="black" stroke-opacity="0.16" stroke-width="1.93402"/>
<path d="M121.892 337.378L121.892 348.986" stroke="black" stroke-opacity="0.16" stroke-width="1.93402"/>
<path d="M121.892 67.4755L121.892 79.0842" stroke="black" stroke-opacity="0.16" stroke-width="1.93402"/>
<path d="M121.892 202.427L121.892 214.035" stroke="black" stroke-opacity="0.16" stroke-width="1.93402"/>
<path d="M121.892 427.345L121.892 438.954" stroke="black" stroke-opacity="0.16" stroke-width="1.93402"/>
<path d="M121.892 359.869L121.892 371.478" stroke="black" stroke-opacity="0.16" stroke-width="1.93402"/>
<path d="M121.892 89.9676L121.892 101.576" stroke="black" stroke-opacity="0.16" stroke-width="1.93402"/>
<path d="M121.892 224.919L121.892 236.527" stroke="black" stroke-opacity="0.16" stroke-width="1.93402"/>
<path d="M121.892 449.837L121.892 461.446" stroke="black" stroke-opacity="0.16" stroke-width="1.93402"/>
<path d="M121.892 123.101C119.22 123.101 117.055 120.935 117.055 118.264C117.055 115.592 119.22 113.427 121.892 113.427C124.563 113.427 126.729 115.592 126.729 118.264C126.729 120.935 124.563 123.101 121.892 123.101Z" stroke="black" stroke-opacity="0.16" stroke-width="1.93402"/>
<path d="M121.892 280.543C119.22 280.543 117.055 278.378 117.055 275.707C117.055 273.035 119.22 270.87 121.892 270.87C124.563 270.87 126.729 273.035 126.729 275.707C126.729 278.378 124.563 280.543 121.892 280.543Z" stroke="black" stroke-opacity="0.16" stroke-width="1.93402"/>
<path d="M121.892 258.052C119.22 258.052 117.055 255.886 117.055 253.215C117.055 250.543 119.22 248.378 121.892 248.378C124.563 248.378 126.729 250.543 126.729 253.215C126.729 255.886 124.563 258.052 121.892 258.052Z" stroke="black" stroke-opacity="0.16" stroke-width="1.93402"/>
<path d="M218.631 0.967362C215.96 0.967362 213.794 3.13294 213.794 5.80431C213.794 8.47569 215.96 10.6413 218.631 10.6413C221.302 10.6413 223.468 8.47569 223.468 5.80431C223.468 3.13294 221.302 0.967362 218.631 0.967362Z" stroke="black" stroke-opacity="0.16" stroke-width="1.93402"/>
<path d="M334.718 0.967362C332.046 0.967362 329.881 3.13294 329.881 5.80431C329.881 8.47569 332.046 10.6413 334.718 10.6413C337.389 10.6413 339.554 8.47569 339.554 5.80431C339.554 3.13294 337.389 0.967362 334.718 0.967362Z" stroke="black" stroke-opacity="0.16" stroke-width="1.93402"/>
<path d="M470.152 0.967362C472.824 0.967362 474.989 3.13294 474.989 5.80431C474.989 8.47569 472.824 10.6413 470.152 10.6413C467.481 10.6413 465.315 8.47569 465.315 5.80431C465.315 3.13294 467.481 0.967362 470.152 0.967362Z" stroke="black" stroke-opacity="0.16" stroke-width="1.93402"/>
<path d="M102.544 348.986V337.378" stroke="black" stroke-opacity="0.16" stroke-width="1.93402"/>
<path d="M102.544 191.544V179.935" stroke="black" stroke-opacity="0.16" stroke-width="1.93402"/>
<path d="M102.544 461.446V449.837" stroke="black" stroke-opacity="0.16" stroke-width="1.93402"/>
<path d="M102.544 326.495V314.886" stroke="black" stroke-opacity="0.16" stroke-width="1.93402"/>
<path d="M102.544 101.576V89.9676" stroke="black" stroke-opacity="0.16" stroke-width="1.93402"/>
<path d="M102.544 169.052V157.443" stroke="black" stroke-opacity="0.16" stroke-width="1.93402"/>
<path d="M102.544 438.954V427.345" stroke="black" stroke-opacity="0.16" stroke-width="1.93402"/>
<path d="M102.544 304.003V292.394" stroke="black" stroke-opacity="0.16" stroke-width="1.93402"/>
<path d="M102.544 79.0842V67.4755" stroke="black" stroke-opacity="0.16" stroke-width="1.93402"/>
<path d="M102.544 146.56V134.951" stroke="black" stroke-opacity="0.16" stroke-width="1.93402"/>
<path d="M102.544 416.462V404.853" stroke="black" stroke-opacity="0.16" stroke-width="1.93402"/>
<path d="M102.544 281.511V269.902" stroke="black" stroke-opacity="0.16" stroke-width="1.93402"/>
<path d="M102.544 56.5923V44.9836" stroke="black" stroke-opacity="0.16" stroke-width="1.93402"/>
<path d="M102.544 124.068V112.459" stroke="black" stroke-opacity="0.16" stroke-width="1.93402"/>
<path d="M102.544 393.97V382.361" stroke="black" stroke-opacity="0.16" stroke-width="1.93402"/>
<path d="M102.544 259.019V247.41" stroke="black" stroke-opacity="0.16" stroke-width="1.93402"/>
<path d="M102.544 34.1006V22.4919" stroke="black" stroke-opacity="0.16" stroke-width="1.93402"/>
<path d="M102.544 360.837C99.8725 360.837 97.7069 363.002 97.7069 365.674C97.7069 368.345 99.8725 370.511 102.544 370.511C105.215 370.511 107.381 368.345 107.381 365.674C107.381 363.002 105.215 360.837 102.544 360.837Z" stroke="black" stroke-opacity="0.16" stroke-width="1.93402"/>
<path d="M102.544 203.394C99.8725 203.394 97.7069 205.56 97.7069 208.231C97.7069 210.902 99.8725 213.068 102.544 213.068C105.215 213.068 107.381 210.902 107.381 208.231C107.381 205.56 105.215 203.394 102.544 203.394Z" stroke="black" stroke-opacity="0.16" stroke-width="1.93402"/>
<path d="M102.544 225.886C99.8725 225.886 97.7069 228.051 97.7069 230.723C97.7069 233.394 99.8725 235.56 102.544 235.56C105.215 235.56 107.381 233.394 107.381 230.723C107.381 228.051 105.215 225.886 102.544 225.886Z" stroke="black" stroke-opacity="0.16" stroke-width="1.93402"/>
<path d="M102.544 0.967362C99.8725 0.967362 97.7069 3.13294 97.7069 5.80431C97.7069 8.47569 99.8725 10.6413 102.544 10.6413C105.215 10.6413 107.381 8.47569 107.381 5.80431C107.381 3.13294 105.215 0.967362 102.544 0.967362Z" stroke="black" stroke-opacity="0.16" stroke-width="1.93402"/>
<path d="M296.022 449.837L296.022 461.446" stroke="black" stroke-opacity="0.16" stroke-width="1.93402"/>
<path d="M295.84 44.9836L295.84 56.5923" stroke="black" stroke-opacity="0.16" stroke-width="1.93402"/>
<path d="M295.84 157.443L295.84 169.052" stroke="black" stroke-opacity="0.16" stroke-width="1.93402"/>
<path d="M295.84 292.394L295.84 304.003" stroke="black" stroke-opacity="0.16" stroke-width="1.93402"/>
<path d="M295.84 112.459L295.84 124.068" stroke="black" stroke-opacity="0.16" stroke-width="1.93402"/>
<path d="M295.84 247.41L295.84 259.019" stroke="black" stroke-opacity="0.16" stroke-width="1.93402"/>
<path d="M295.84 224.919L295.84 236.527" stroke="black" stroke-opacity="0.16" stroke-width="1.93402"/>
<path d="M295.84 359.869L295.84 371.478" stroke="black" stroke-opacity="0.16" stroke-width="1.93402"/>
<path d="M296.022 382.361L296.022 393.97" stroke="black" stroke-opacity="0.16" stroke-width="1.93402"/>
<path d="M296.022 33.1331C293.35 33.1331 291.185 30.9675 291.185 28.2961C291.185 25.6247 293.35 23.4592 296.022 23.4592C298.693 23.4592 300.859 25.6247 300.859 28.2961C300.859 30.9675 298.693 33.1331 296.022 33.1331Z" stroke="black" stroke-opacity="0.16" stroke-width="1.93402"/>
<path d="M296.022 145.593C293.35 145.593 291.185 143.427 291.185 140.756C291.185 138.084 293.35 135.919 296.022 135.919C298.693 135.919 300.859 138.084 300.859 140.756C300.859 143.427 298.693 145.593 296.022 145.593Z" stroke="black" stroke-opacity="0.16" stroke-width="1.93402"/>
<path d="M296.022 280.543C293.35 280.543 291.185 278.378 291.185 275.707C291.185 273.035 293.35 270.87 296.022 270.87C298.693 270.87 300.859 273.035 300.859 275.707C300.859 278.378 298.693 280.543 296.022 280.543Z" stroke="black" stroke-opacity="0.16" stroke-width="1.93402"/>
<path d="M296.022 78.1168C293.35 78.1168 291.185 75.9512 291.185 73.2798C291.185 70.6085 293.35 68.4429 296.022 68.4429C298.693 68.4429 300.859 70.6085 300.859 73.2798C300.859 75.9512 298.693 78.1168 296.022 78.1168Z" stroke="black" stroke-opacity="0.16" stroke-width="1.93402"/>
<path d="M296.022 190.576C293.35 190.576 291.185 188.411 291.185 185.739C291.185 183.068 293.35 180.902 296.022 180.902C298.693 180.902 300.859 183.068 300.859 185.739C300.859 188.411 298.693 190.576 296.022 190.576Z" stroke="black" stroke-opacity="0.16" stroke-width="1.93402"/>
<path d="M296.022 325.527C293.35 325.527 291.185 323.362 291.185 320.69C291.185 318.019 293.35 315.853 296.022 315.853C298.693 315.853 300.859 318.019 300.859 320.69C300.859 323.362 298.693 325.527 296.022 325.527Z" stroke="black" stroke-opacity="0.16" stroke-width="1.93402"/>
<path d="M296.022 100.609C293.35 100.609 291.185 98.4433 291.185 95.772C291.185 93.1006 293.35 90.935 296.022 90.935C298.693 90.935 300.859 93.1006 300.859 95.772C300.859 98.4433 298.693 100.609 296.022 100.609Z" stroke="black" stroke-opacity="0.16" stroke-width="1.93402"/>
<path d="M296.022 213.068C293.35 213.068 291.185 210.902 291.185 208.231C291.185 205.56 293.35 203.394 296.022 203.394C298.693 203.394 300.859 205.56 300.859 208.231C300.859 210.902 298.693 213.068 296.022 213.068Z" stroke="black" stroke-opacity="0.16" stroke-width="1.93402"/>
<path d="M296.022 348.019C293.35 348.019 291.185 345.853 291.185 343.182C291.185 340.511 293.35 338.345 296.022 338.345C298.693 338.345 300.859 340.511 300.859 343.182C300.859 345.853 298.693 348.019 296.022 348.019Z" stroke="black" stroke-opacity="0.16" stroke-width="1.93402"/>
<path d="M296.022 437.986C293.35 437.986 291.185 435.821 291.185 433.149C291.185 430.478 293.35 428.312 296.022 428.312C298.693 428.312 300.859 430.478 300.859 433.149C300.859 435.821 298.693 437.986 296.022 437.986Z" stroke="black" stroke-opacity="0.16" stroke-width="1.93402"/>
<path d="M296.022 415.494C293.35 415.494 291.185 413.329 291.185 410.657C291.185 407.986 293.35 405.821 296.022 405.821C298.693 405.821 300.859 407.986 300.859 410.657C300.859 413.329 298.693 415.494 296.022 415.494Z" stroke="black" stroke-opacity="0.16" stroke-width="1.93402"/>
<path d="M508.848 449.837V461.446" stroke="black" stroke-opacity="0.16" stroke-width="1.93402"/>
<path d="M509.029 44.9836V56.5923" stroke="black" stroke-opacity="0.16" stroke-width="1.93402"/>
<path d="M509.029 157.443V169.052" stroke="black" stroke-opacity="0.16" stroke-width="1.93402"/>
<path d="M509.029 292.394V304.003" stroke="black" stroke-opacity="0.16" stroke-width="1.93402"/>
<path d="M509.029 112.459V124.068" stroke="black" stroke-opacity="0.16" stroke-width="1.93402"/>
<path d="M509.029 247.41V259.019" stroke="black" stroke-opacity="0.16" stroke-width="1.93402"/>
<path d="M509.029 224.919V236.527" stroke="black" stroke-opacity="0.16" stroke-width="1.93402"/>
<path d="M509.029 359.869V371.478" stroke="black" stroke-opacity="0.16" stroke-width="1.93402"/>
<path d="M508.848 382.361V393.97" stroke="black" stroke-opacity="0.16" stroke-width="1.93402"/>
<path d="M508.848 33.1331C511.519 33.1331 513.685 30.9675 513.685 28.2961C513.685 25.6247 511.519 23.4592 508.848 23.4592C506.176 23.4592 504.011 25.6247 504.011 28.2961C504.011 30.9675 506.176 33.1331 508.848 33.1331Z" stroke="black" stroke-opacity="0.16" stroke-width="1.93402"/>
<path d="M508.848 145.593C511.519 145.593 513.685 143.427 513.685 140.756C513.685 138.084 511.519 135.919 508.848 135.919C506.176 135.919 504.011 138.084 504.011 140.756C504.011 143.427 506.176 145.593 508.848 145.593Z" stroke="black" stroke-opacity="0.16" stroke-width="1.93402"/>
<path d="M508.848 280.543C511.519 280.543 513.685 278.378 513.685 275.707C513.685 273.035 511.519 270.87 508.848 270.87C506.176 270.87 504.011 273.035 504.011 275.707C504.011 278.378 506.176 280.543 508.848 280.543Z" stroke="black" stroke-opacity="0.16" stroke-width="1.93402"/>
<path d="M508.848 78.1168C511.519 78.1168 513.685 75.9512 513.685 73.2798C513.685 70.6085 511.519 68.4429 508.848 68.4429C506.176 68.4429 504.011 70.6085 504.011 73.2798C504.011 75.9512 506.176 78.1168 508.848 78.1168Z" stroke="black" stroke-opacity="0.16" stroke-width="1.93402"/>
<path d="M508.848 190.576C511.519 190.576 513.685 188.411 513.685 185.739C513.685 183.068 511.519 180.902 508.848 180.902C506.176 180.902 504.011 183.068 504.011 185.739C504.011 188.411 506.176 190.576 508.848 190.576Z" stroke="black" stroke-opacity="0.16" stroke-width="1.93402"/>
<path d="M508.848 325.527C511.519 325.527 513.685 323.362 513.685 320.69C513.685 318.019 511.519 315.853 508.848 315.853C506.176 315.853 504.011 318.019 504.011 320.69C504.011 323.362 506.176 325.527 508.848 325.527Z" stroke="black" stroke-opacity="0.16" stroke-width="1.93402"/>
<path d="M508.848 100.609C511.519 100.609 513.685 98.4433 513.685 95.772C513.685 93.1006 511.519 90.935 508.848 90.935C506.176 90.935 504.011 93.1006 504.011 95.772C504.011 98.4433 506.176 100.609 508.848 100.609Z" stroke="black" stroke-opacity="0.16" stroke-width="1.93402"/>
<path d="M508.848 213.068C511.519 213.068 513.685 210.902 513.685 208.231C513.685 205.56 511.519 203.394 508.848 203.394C506.176 203.394 504.011 205.56 504.011 208.231C504.011 210.902 506.176 213.068 508.848 213.068Z" stroke="black" stroke-opacity="0.16" stroke-width="1.93402"/>
<path d="M508.848 348.019C511.519 348.019 513.685 345.853 513.685 343.182C513.685 340.511 511.519 338.345 508.848 338.345C506.176 338.345 504.011 340.511 504.011 343.182C504.011 345.853 506.176 348.019 508.848 348.019Z" stroke="black" stroke-opacity="0.16" stroke-width="1.93402"/>
<path d="M508.848 437.986C511.519 437.986 513.685 435.821 513.685 433.149C513.685 430.478 511.519 428.312 508.848 428.312C506.176 428.312 504.011 430.478 504.011 433.149C504.011 435.821 506.176 437.986 508.848 437.986Z" stroke="black" stroke-opacity="0.16" stroke-width="1.93402"/>
<path d="M508.848 415.494C511.519 415.494 513.685 413.329 513.685 410.657C513.685 407.986 511.519 405.821 508.848 405.821C506.176 405.821 504.011 407.986 504.011 410.657C504.011 413.329 506.176 415.494 508.848 415.494Z" stroke="black" stroke-opacity="0.16" stroke-width="1.93402"/>
<path d="M63.8478 449.837L63.8478 461.446" stroke="black" stroke-opacity="0.16" stroke-width="1.93402"/>
<path d="M63.6664 44.9836L63.6664 56.5923" stroke="black" stroke-opacity="0.16" stroke-width="1.93402"/>
<path d="M63.6664 157.443L63.6664 169.052" stroke="black" stroke-opacity="0.16" stroke-width="1.93402"/>
<path d="M63.6664 292.394L63.6664 304.003" stroke="black" stroke-opacity="0.16" stroke-width="1.93402"/>
<path d="M63.6664 112.459L63.6664 124.068" stroke="black" stroke-opacity="0.16" stroke-width="1.93402"/>
<path d="M63.6664 247.41L63.6664 259.019" stroke="black" stroke-opacity="0.16" stroke-width="1.93402"/>
<path d="M63.6664 224.919L63.6664 236.527" stroke="black" stroke-opacity="0.16" stroke-width="1.93402"/>
<path d="M63.6664 359.869L63.6664 371.478" stroke="black" stroke-opacity="0.16" stroke-width="1.93402"/>
<path d="M63.8478 382.361L63.8478 393.97" stroke="black" stroke-opacity="0.16" stroke-width="1.93402"/>
<path d="M63.8477 33.1331C61.1764 33.1331 59.0108 30.9675 59.0108 28.2961C59.0108 25.6247 61.1764 23.4592 63.8477 23.4592C66.5191 23.4592 68.6847 25.6247 68.6847 28.2961C68.6847 30.9675 66.5191 33.1331 63.8477 33.1331Z" stroke="black" stroke-opacity="0.16" stroke-width="1.93402"/>
<path d="M63.8477 145.593C61.1764 145.593 59.0108 143.427 59.0108 140.756C59.0108 138.084 61.1764 135.919 63.8477 135.919C66.5191 135.919 68.6847 138.084 68.6847 140.756C68.6847 143.427 66.5191 145.593 63.8477 145.593Z" stroke="black" stroke-opacity="0.16" stroke-width="1.93402"/>
<path d="M63.8477 280.543C61.1764 280.543 59.0108 278.378 59.0108 275.707C59.0108 273.035 61.1764 270.87 63.8477 270.87C66.5191 270.87 68.6847 273.035 68.6847 275.707C68.6847 278.378 66.5191 280.543 63.8477 280.543Z" stroke="black" stroke-opacity="0.16" stroke-width="1.93402"/>
<path d="M63.8477 78.1168C61.1764 78.1168 59.0108 75.9512 59.0108 73.2798C59.0108 70.6085 61.1764 68.4429 63.8477 68.4429C66.5191 68.4429 68.6847 70.6085 68.6847 73.2798C68.6847 75.9512 66.5191 78.1168 63.8477 78.1168Z" stroke="black" stroke-opacity="0.16" stroke-width="1.93402"/>
<path d="M63.8477 190.576C61.1764 190.576 59.0108 188.411 59.0108 185.739C59.0108 183.068 61.1764 180.902 63.8477 180.902C66.5191 180.902 68.6847 183.068 68.6847 185.739C68.6847 188.411 66.5191 190.576 63.8477 190.576Z" stroke="black" stroke-opacity="0.16" stroke-width="1.93402"/>
<path d="M63.8477 325.527C61.1764 325.527 59.0108 323.362 59.0108 320.69C59.0108 318.019 61.1764 315.853 63.8477 315.853C66.5191 315.853 68.6847 318.019 68.6847 320.69C68.6847 323.362 66.5191 325.527 63.8477 325.527Z" stroke="black" stroke-opacity="0.16" stroke-width="1.93402"/>
<path d="M63.8477 100.609C61.1764 100.609 59.0108 98.4433 59.0108 95.772C59.0108 93.1006 61.1764 90.935 63.8477 90.935C66.5191 90.935 68.6847 93.1006 68.6847 95.772C68.6847 98.4433 66.5191 100.609 63.8477 100.609Z" stroke="black" stroke-opacity="0.16" stroke-width="1.93402"/>
<path d="M63.8477 213.068C61.1764 213.068 59.0108 210.902 59.0108 208.231C59.0108 205.56 61.1764 203.394 63.8477 203.394C66.5191 203.394 68.6847 205.56 68.6847 208.231C68.6847 210.902 66.5191 213.068 63.8477 213.068Z" stroke="black" stroke-opacity="0.16" stroke-width="1.93402"/>
<path d="M63.8477 348.019C61.1764 348.019 59.0108 345.853 59.0108 343.182C59.0108 340.511 61.1764 338.345 63.8477 338.345C66.5191 338.345 68.6847 340.511 68.6847 343.182C68.6847 345.853 66.5191 348.019 63.8477 348.019Z" stroke="black" stroke-opacity="0.16" stroke-width="1.93402"/>
<path d="M63.8477 437.986C61.1764 437.986 59.0108 435.821 59.0108 433.149C59.0108 430.478 61.1764 428.312 63.8477 428.312C66.5191 428.312 68.6847 430.478 68.6847 433.149C68.6847 435.821 66.5191 437.986 63.8477 437.986Z" stroke="black" stroke-opacity="0.16" stroke-width="1.93402"/>
<path d="M63.8477 415.494C61.1764 415.494 59.0108 413.329 59.0108 410.657C59.0108 407.986 61.1764 405.821 63.8477 405.821C66.5191 405.821 68.6847 407.986 68.6847 410.657C68.6847 413.329 66.5191 415.494 63.8477 415.494Z" stroke="black" stroke-opacity="0.16" stroke-width="1.93402"/>
<path d="M392.761 449.837V461.446" stroke="black" stroke-opacity="0.16" stroke-width="1.93402"/>
<path d="M392.942 44.9836V56.5923" stroke="black" stroke-opacity="0.16" stroke-width="1.93402"/>
<path d="M392.942 157.443V169.052" stroke="black" stroke-opacity="0.16" stroke-width="1.93402"/>
<path d="M392.942 292.394V304.003" stroke="black" stroke-opacity="0.16" stroke-width="1.93402"/>
<path d="M392.942 112.459V124.068" stroke="black" stroke-opacity="0.16" stroke-width="1.93402"/>
<path d="M392.942 247.41V259.019" stroke="black" stroke-opacity="0.16" stroke-width="1.93402"/>
<path d="M392.942 224.919V236.527" stroke="black" stroke-opacity="0.16" stroke-width="1.93402"/>
<path d="M392.942 359.869V371.478" stroke="black" stroke-opacity="0.16" stroke-width="1.93402"/>
<path d="M392.761 382.361V393.97" stroke="black" stroke-opacity="0.16" stroke-width="1.93402"/>
<path d="M392.761 33.1331C395.432 33.1331 397.598 30.9675 397.598 28.2961C397.598 25.6247 395.432 23.4592 392.761 23.4592C390.09 23.4592 387.924 25.6247 387.924 28.2961C387.924 30.9675 390.09 33.1331 392.761 33.1331Z" stroke="black" stroke-opacity="0.16" stroke-width="1.93402"/>
<path d="M392.761 145.593C395.432 145.593 397.598 143.427 397.598 140.756C397.598 138.084 395.432 135.919 392.761 135.919C390.09 135.919 387.924 138.084 387.924 140.756C387.924 143.427 390.09 145.593 392.761 145.593Z" stroke="black" stroke-opacity="0.16" stroke-width="1.93402"/>
<path d="M392.761 280.543C395.432 280.543 397.598 278.378 397.598 275.707C397.598 273.035 395.432 270.87 392.761 270.87C390.09 270.87 387.924 273.035 387.924 275.707C387.924 278.378 390.09 280.543 392.761 280.543Z" stroke="black" stroke-opacity="0.16" stroke-width="1.93402"/>
<path d="M392.761 78.1168C395.432 78.1168 397.598 75.9512 397.598 73.2798C397.598 70.6085 395.432 68.4429 392.761 68.4429C390.09 68.4429 387.924 70.6085 387.924 73.2798C387.924 75.9512 390.09 78.1168 392.761 78.1168Z" stroke="black" stroke-opacity="0.16" stroke-width="1.93402"/>
<path d="M392.761 190.576C395.432 190.576 397.598 188.411 397.598 185.739C397.598 183.068 395.432 180.902 392.761 180.902C390.09 180.902 387.924 183.068 387.924 185.739C387.924 188.411 390.09 190.576 392.761 190.576Z" stroke="black" stroke-opacity="0.16" stroke-width="1.93402"/>
<path d="M392.761 325.527C395.432 325.527 397.598 323.362 397.598 320.69C397.598 318.019 395.432 315.853 392.761 315.853C390.09 315.853 387.924 318.019 387.924 320.69C387.924 323.362 390.09 325.527 392.761 325.527Z" stroke="black" stroke-opacity="0.16" stroke-width="1.93402"/>
<path d="M392.761 100.609C395.432 100.609 397.598 98.4433 397.598 95.772C397.598 93.1006 395.432 90.935 392.761 90.935C390.09 90.935 387.924 93.1006 387.924 95.772C387.924 98.4433 390.09 100.609 392.761 100.609Z" stroke="black" stroke-opacity="0.16" stroke-width="1.93402"/>
<path d="M392.761 213.068C395.432 213.068 397.598 210.902 397.598 208.231C397.598 205.56 395.432 203.394 392.761 203.394C390.09 203.394 387.924 205.56 387.924 208.231C387.924 210.902 390.09 213.068 392.761 213.068Z" stroke="black" stroke-opacity="0.16" stroke-width="1.93402"/>
<path d="M392.761 348.019C395.432 348.019 397.598 345.853 397.598 343.182C397.598 340.511 395.432 338.345 392.761 338.345C390.09 338.345 387.924 340.511 387.924 343.182C387.924 345.853 390.09 348.019 392.761 348.019Z" stroke="black" stroke-opacity="0.16" stroke-width="1.93402"/>
<path d="M392.761 437.986C395.432 437.986 397.598 435.821 397.598 433.149C397.598 430.478 395.432 428.312 392.761 428.312C390.09 428.312 387.924 430.478 387.924 433.149C387.924 435.821 390.09 437.986 392.761 437.986Z" stroke="black" stroke-opacity="0.16" stroke-width="1.93402"/>
<path d="M392.761 415.494C395.432 415.494 397.598 413.329 397.598 410.657C397.598 407.986 395.432 405.821 392.761 405.821C390.09 405.821 387.924 407.986 387.924 410.657C387.924 413.329 390.09 415.494 392.761 415.494Z" stroke="black" stroke-opacity="0.16" stroke-width="1.93402"/>
<path d="M179.935 449.837L179.935 461.446" stroke="black" stroke-opacity="0.16" stroke-width="1.93402"/>
<path d="M179.753 44.9836L179.753 56.5923" stroke="black" stroke-opacity="0.16" stroke-width="1.93402"/>
<path d="M179.753 157.443L179.753 169.052" stroke="black" stroke-opacity="0.16" stroke-width="1.93402"/>
<path d="M179.753 292.394L179.753 304.003" stroke="black" stroke-opacity="0.16" stroke-width="1.93402"/>
<path d="M179.753 112.459L179.753 124.068" stroke="black" stroke-opacity="0.16" stroke-width="1.93402"/>
<path d="M179.753 247.41L179.753 259.019" stroke="black" stroke-opacity="0.16" stroke-width="1.93402"/>
<path d="M179.753 224.919L179.753 236.527" stroke="black" stroke-opacity="0.16" stroke-width="1.93402"/>
<path d="M179.753 359.869L179.753 371.478" stroke="black" stroke-opacity="0.16" stroke-width="1.93402"/>
<path d="M179.935 382.361L179.935 393.97" stroke="black" stroke-opacity="0.16" stroke-width="1.93402"/>
<path d="M179.935 33.1331C177.264 33.1331 175.098 30.9675 175.098 28.2961C175.098 25.6247 177.264 23.4592 179.935 23.4592C182.606 23.4592 184.772 25.6247 184.772 28.2961C184.772 30.9675 182.606 33.1331 179.935 33.1331Z" stroke="black" stroke-opacity="0.16" stroke-width="1.93402"/>
<path d="M179.935 145.593C177.264 145.593 175.098 143.427 175.098 140.756C175.098 138.084 177.264 135.919 179.935 135.919C182.606 135.919 184.772 138.084 184.772 140.756C184.772 143.427 182.606 145.593 179.935 145.593Z" stroke="black" stroke-opacity="0.16" stroke-width="1.93402"/>
<path d="M179.935 280.543C177.264 280.543 175.098 278.378 175.098 275.707C175.098 273.035 177.264 270.87 179.935 270.87C182.606 270.87 184.772 273.035 184.772 275.707C184.772 278.378 182.606 280.543 179.935 280.543Z" stroke="black" stroke-opacity="0.16" stroke-width="1.93402"/>
<path d="M179.935 78.1168C177.264 78.1168 175.098 75.9512 175.098 73.2798C175.098 70.6085 177.264 68.4429 179.935 68.4429C182.606 68.4429 184.772 70.6085 184.772 73.2798C184.772 75.9512 182.606 78.1168 179.935 78.1168Z" stroke="black" stroke-opacity="0.16" stroke-width="1.93402"/>
<path d="M179.935 190.576C177.264 190.576 175.098 188.411 175.098 185.739C175.098 183.068 177.264 180.902 179.935 180.902C182.606 180.902 184.772 183.068 184.772 185.739C184.772 188.411 182.606 190.576 179.935 190.576Z" stroke="black" stroke-opacity="0.16" stroke-width="1.93402"/>
<path d="M179.935 325.527C177.264 325.527 175.098 323.362 175.098 320.69C175.098 318.019 177.264 315.853 179.935 315.853C182.606 315.853 184.772 318.019 184.772 320.69C184.772 323.362 182.606 325.527 179.935 325.527Z" stroke="black" stroke-opacity="0.16" stroke-width="1.93402"/>
<path d="M179.935 100.609C177.264 100.609 175.098 98.4433 175.098 95.772C175.098 93.1006 177.264 90.935 179.935 90.935C182.606 90.935 184.772 93.1006 184.772 95.772C184.772 98.4433 182.606 100.609 179.935 100.609Z" stroke="black" stroke-opacity="0.16" stroke-width="1.93402"/>
<path d="M179.935 213.068C177.264 213.068 175.098 210.902 175.098 208.231C175.098 205.56 177.264 203.394 179.935 203.394C182.606 203.394 184.772 205.56 184.772 208.231C184.772 210.902 182.606 213.068 179.935 213.068Z" stroke="black" stroke-opacity="0.16" stroke-width="1.93402"/>
<path d="M179.935 348.019C177.264 348.019 175.098 345.853 175.098 343.182C175.098 340.511 177.264 338.345 179.935 338.345C182.606 338.345 184.772 340.511 184.772 343.182C184.772 345.853 182.606 348.019 179.935 348.019Z" stroke="black" stroke-opacity="0.16" stroke-width="1.93402"/>
<path d="M179.935 437.986C177.264 437.986 175.098 435.821 175.098 433.149C175.098 430.478 177.264 428.312 179.935 428.312C182.606 428.312 184.772 430.478 184.772 433.149C184.772 435.821 182.606 437.986 179.935 437.986Z" stroke="black" stroke-opacity="0.16" stroke-width="1.93402"/>
<path d="M179.935 415.494C177.264 415.494 175.098 413.329 175.098 410.657C175.098 407.986 177.264 405.821 179.935 405.821C182.606 405.821 184.772 407.986 184.772 410.657C184.772 413.329 182.606 415.494 179.935 415.494Z" stroke="black" stroke-opacity="0.16" stroke-width="1.93402"/>
<path d="M257.326 449.837L257.326 461.446" stroke="black" stroke-opacity="0.16" stroke-width="1.93402"/>
<path d="M257.144 44.9836L257.144 56.5923" stroke="black" stroke-opacity="0.16" stroke-width="1.93402"/>
<path d="M257.144 157.443L257.144 169.052" stroke="black" stroke-opacity="0.16" stroke-width="1.93402"/>
<path d="M257.144 292.394L257.144 304.003" stroke="black" stroke-opacity="0.16" stroke-width="1.93402"/>
<path d="M257.144 112.459L257.144 124.068" stroke="black" stroke-opacity="0.16" stroke-width="1.93402"/>
<path d="M257.144 247.41L257.144 259.019" stroke="black" stroke-opacity="0.16" stroke-width="1.93402"/>
<path d="M257.144 224.919L257.144 236.527" stroke="black" stroke-opacity="0.16" stroke-width="1.93402"/>
<path d="M257.144 359.869L257.144 371.478" stroke="black" stroke-opacity="0.16" stroke-width="1.93402"/>
<path d="M257.326 382.361L257.326 393.97" stroke="black" stroke-opacity="0.16" stroke-width="1.93402"/>
<path d="M257.326 33.1331C254.655 33.1331 252.489 30.9675 252.489 28.2961C252.489 25.6247 254.655 23.4592 257.326 23.4592C259.998 23.4592 262.163 25.6247 262.163 28.2961C262.163 30.9675 259.998 33.1331 257.326 33.1331Z" stroke="black" stroke-opacity="0.16" stroke-width="1.93402"/>
<path d="M257.326 145.593C254.655 145.593 252.489 143.427 252.489 140.756C252.489 138.084 254.655 135.919 257.326 135.919C259.998 135.919 262.163 138.084 262.163 140.756C262.163 143.427 259.998 145.593 257.326 145.593Z" stroke="black" stroke-opacity="0.16" stroke-width="1.93402"/>
<path d="M257.326 280.543C254.655 280.543 252.489 278.378 252.489 275.707C252.489 273.035 254.655 270.87 257.326 270.87C259.998 270.87 262.163 273.035 262.163 275.707C262.163 278.378 259.998 280.543 257.326 280.543Z" stroke="black" stroke-opacity="0.16" stroke-width="1.93402"/>
<path d="M257.326 78.1168C254.655 78.1168 252.489 75.9512 252.489 73.2798C252.489 70.6085 254.655 68.4429 257.326 68.4429C259.998 68.4429 262.163 70.6085 262.163 73.2798C262.163 75.9512 259.998 78.1168 257.326 78.1168Z" stroke="black" stroke-opacity="0.16" stroke-width="1.93402"/>
<path d="M257.326 190.576C254.655 190.576 252.489 188.411 252.489 185.739C252.489 183.068 254.655 180.902 257.326 180.902C259.998 180.902 262.163 183.068 262.163 185.739C262.163 188.411 259.998 190.576 257.326 190.576Z" stroke="black" stroke-opacity="0.16" stroke-width="1.93402"/>
<path d="M257.326 325.527C254.655 325.527 252.489 323.362 252.489 320.69C252.489 318.019 254.655 315.853 257.326 315.853C259.998 315.853 262.163 318.019 262.163 320.69C262.163 323.362 259.998 325.527 257.326 325.527Z" stroke="black" stroke-opacity="0.16" stroke-width="1.93402"/>
<path d="M257.326 100.609C254.655 100.609 252.489 98.4433 252.489 95.772C252.489 93.1006 254.655 90.935 257.326 90.935C259.998 90.935 262.163 93.1006 262.163 95.772C262.163 98.4433 259.998 100.609 257.326 100.609Z" stroke="black" stroke-opacity="0.16" stroke-width="1.93402"/>
<path d="M257.326 213.068C254.655 213.068 252.489 210.902 252.489 208.231C252.489 205.56 254.655 203.394 257.326 203.394C259.998 203.394 262.163 205.56 262.163 208.231C262.163 210.902 259.998 213.068 257.326 213.068Z" stroke="black" stroke-opacity="0.16" stroke-width="1.93402"/>
<path d="M257.326 348.019C254.655 348.019 252.489 345.853 252.489 343.182C252.489 340.511 254.655 338.345 257.326 338.345C259.998 338.345 262.163 340.511 262.163 343.182C262.163 345.853 259.998 348.019 257.326 348.019Z" stroke="black" stroke-opacity="0.16" stroke-width="1.93402"/>
<path d="M257.326 437.986C254.655 437.986 252.489 435.821 252.489 433.149C252.489 430.478 254.655 428.312 257.326 428.312C259.998 428.312 262.163 430.478 262.163 433.149C262.163 435.821 259.998 437.986 257.326 437.986Z" stroke="black" stroke-opacity="0.16" stroke-width="1.93402"/>
<path d="M257.326 415.494C254.655 415.494 252.489 413.329 252.489 410.657C252.489 407.986 254.655 405.821 257.326 405.821C259.998 405.821 262.163 407.986 262.163 410.657C262.163 413.329 259.998 415.494 257.326 415.494Z" stroke="black" stroke-opacity="0.16" stroke-width="1.93402"/>
<path d="M25.1522 449.837L25.1522 461.446" stroke="black" stroke-opacity="0.16" stroke-width="1.93402"/>
<path d="M24.9707 44.9836L24.9707 56.5923" stroke="black" stroke-opacity="0.16" stroke-width="1.93402"/>
<path d="M24.9707 157.443L24.9707 169.052" stroke="black" stroke-opacity="0.16" stroke-width="1.93402"/>
<path d="M24.9707 292.394L24.9707 304.003" stroke="black" stroke-opacity="0.16" stroke-width="1.93402"/>
<path d="M24.9707 112.459L24.9707 124.068" stroke="black" stroke-opacity="0.16" stroke-width="1.93402"/>
<path d="M24.9707 247.41L24.9707 259.019" stroke="black" stroke-opacity="0.16" stroke-width="1.93402"/>
<path d="M24.9707 224.919L24.9707 236.527" stroke="black" stroke-opacity="0.16" stroke-width="1.93402"/>
<path d="M24.9707 359.869L24.9707 371.478" stroke="black" stroke-opacity="0.16" stroke-width="1.93402"/>
<path d="M25.1522 382.361L25.1522 393.97" stroke="black" stroke-opacity="0.16" stroke-width="1.93402"/>
<path d="M25.1521 33.1331C22.4807 33.1331 20.3152 30.9675 20.3152 28.2961C20.3152 25.6247 22.4807 23.4592 25.1521 23.4592C27.8235 23.4592 29.9891 25.6247 29.9891 28.2961C29.9891 30.9675 27.8235 33.1331 25.1521 33.1331Z" stroke="black" stroke-opacity="0.16" stroke-width="1.93402"/>
<path d="M25.1521 145.593C22.4807 145.593 20.3152 143.427 20.3152 140.756C20.3152 138.084 22.4807 135.919 25.1521 135.919C27.8235 135.919 29.9891 138.084 29.9891 140.756C29.9891 143.427 27.8235 145.593 25.1521 145.593Z" stroke="black" stroke-opacity="0.16" stroke-width="1.93402"/>
<path d="M25.1521 280.543C22.4807 280.543 20.3152 278.378 20.3152 275.707C20.3152 273.035 22.4807 270.87 25.1521 270.87C27.8235 270.87 29.9891 273.035 29.9891 275.707C29.9891 278.378 27.8235 280.543 25.1521 280.543Z" stroke="black" stroke-opacity="0.16" stroke-width="1.93402"/>
<path d="M25.1521 78.1168C22.4807 78.1168 20.3152 75.9512 20.3152 73.2798C20.3152 70.6085 22.4807 68.4429 25.1521 68.4429C27.8235 68.4429 29.9891 70.6085 29.9891 73.2798C29.9891 75.9512 27.8235 78.1168 25.1521 78.1168Z" stroke="black" stroke-opacity="0.16" stroke-width="1.93402"/>
<path d="M25.1521 190.576C22.4807 190.576 20.3152 188.411 20.3152 185.739C20.3152 183.068 22.4807 180.902 25.1521 180.902C27.8235 180.902 29.9891 183.068 29.9891 185.739C29.9891 188.411 27.8235 190.576 25.1521 190.576Z" stroke="black" stroke-opacity="0.16" stroke-width="1.93402"/>
<path d="M25.1521 325.527C22.4807 325.527 20.3152 323.362 20.3152 320.69C20.3152 318.019 22.4807 315.853 25.1521 315.853C27.8235 315.853 29.9891 318.019 29.9891 320.69C29.9891 323.362 27.8235 325.527 25.1521 325.527Z" stroke="black" stroke-opacity="0.16" stroke-width="1.93402"/>
<path d="M25.1521 100.609C22.4807 100.609 20.3152 98.4433 20.3152 95.772C20.3152 93.1006 22.4807 90.935 25.1521 90.935C27.8235 90.935 29.9891 93.1006 29.9891 95.772C29.9891 98.4433 27.8235 100.609 25.1521 100.609Z" stroke="black" stroke-opacity="0.16" stroke-width="1.93402"/>
<path d="M25.1521 213.068C22.4807 213.068 20.3152 210.902 20.3152 208.231C20.3152 205.56 22.4807 203.394 25.1521 203.394C27.8235 203.394 29.9891 205.56 29.9891 208.231C29.9891 210.902 27.8235 213.068 25.1521 213.068Z" stroke="black" stroke-opacity="0.16" stroke-width="1.93402"/>
<path d="M25.1521 348.019C22.4807 348.019 20.3152 345.853 20.3152 343.182C20.3152 340.511 22.4807 338.345 25.1521 338.345C27.8235 338.345 29.9891 340.511 29.9891 343.182C29.9891 345.853 27.8235 348.019 25.1521 348.019Z" stroke="black" stroke-opacity="0.16" stroke-width="1.93402"/>
<path d="M25.1521 437.986C22.4807 437.986 20.3152 435.821 20.3152 433.149C20.3152 430.478 22.4807 428.312 25.1521 428.312C27.8235 428.312 29.9891 430.478 29.9891 433.149C29.9891 435.821 27.8235 437.986 25.1521 437.986Z" stroke="black" stroke-opacity="0.16" stroke-width="1.93402"/>
<path d="M25.1521 415.494C22.4807 415.494 20.3152 413.329 20.3152 410.657C20.3152 407.986 22.4807 405.821 25.1521 405.821C27.8235 405.821 29.9891 407.986 29.9891 410.657C29.9891 413.329 27.8235 415.494 25.1521 415.494Z" stroke="black" stroke-opacity="0.16" stroke-width="1.93402"/>
<path d="M431.456 449.837V461.446" stroke="black" stroke-opacity="0.16" stroke-width="1.93402"/>
<path d="M431.638 44.9836V56.5923" stroke="black" stroke-opacity="0.16" stroke-width="1.93402"/>
<path d="M431.638 157.443V169.052" stroke="black" stroke-opacity="0.16" stroke-width="1.93402"/>
<path d="M431.638 292.394V304.003" stroke="black" stroke-opacity="0.16" stroke-width="1.93402"/>
<path d="M431.638 112.459V124.068" stroke="black" stroke-opacity="0.16" stroke-width="1.93402"/>
<path d="M431.638 247.41V259.019" stroke="black" stroke-opacity="0.16" stroke-width="1.93402"/>
<path d="M431.638 224.919V236.527" stroke="black" stroke-opacity="0.16" stroke-width="1.93402"/>
<path d="M431.638 359.869V371.478" stroke="black" stroke-opacity="0.16" stroke-width="1.93402"/>
<path d="M431.456 382.361V393.97" stroke="black" stroke-opacity="0.16" stroke-width="1.93402"/>
<path d="M431.456 33.1331C434.128 33.1331 436.293 30.9675 436.293 28.2961C436.293 25.6247 434.128 23.4592 431.456 23.4592C428.785 23.4592 426.619 25.6247 426.619 28.2961C426.619 30.9675 428.785 33.1331 431.456 33.1331Z" stroke="black" stroke-opacity="0.16" stroke-width="1.93402"/>
<path d="M431.456 145.593C434.128 145.593 436.293 143.427 436.293 140.756C436.293 138.084 434.128 135.919 431.456 135.919C428.785 135.919 426.619 138.084 426.619 140.756C426.619 143.427 428.785 145.593 431.456 145.593Z" stroke="black" stroke-opacity="0.16" stroke-width="1.93402"/>
<path d="M431.456 280.543C434.128 280.543 436.293 278.378 436.293 275.707C436.293 273.035 434.128 270.87 431.456 270.87C428.785 270.87 426.619 273.035 426.619 275.707C426.619 278.378 428.785 280.543 431.456 280.543Z" stroke="black" stroke-opacity="0.16" stroke-width="1.93402"/>
<path d="M431.456 78.1168C434.128 78.1168 436.293 75.9512 436.293 73.2798C436.293 70.6085 434.128 68.4429 431.456 68.4429C428.785 68.4429 426.619 70.6085 426.619 73.2798C426.619 75.9512 428.785 78.1168 431.456 78.1168Z" stroke="black" stroke-opacity="0.16" stroke-width="1.93402"/>
<path d="M431.456 190.576C434.128 190.576 436.293 188.411 436.293 185.739C436.293 183.068 434.128 180.902 431.456 180.902C428.785 180.902 426.619 183.068 426.619 185.739C426.619 188.411 428.785 190.576 431.456 190.576Z" stroke="black" stroke-opacity="0.16" stroke-width="1.93402"/>
<path d="M431.456 325.527C434.128 325.527 436.293 323.362 436.293 320.69C436.293 318.019 434.128 315.853 431.456 315.853C428.785 315.853 426.619 318.019 426.619 320.69C426.619 323.362 428.785 325.527 431.456 325.527Z" stroke="black" stroke-opacity="0.16" stroke-width="1.93402"/>
<path d="M431.456 100.609C434.128 100.609 436.293 98.4433 436.293 95.772C436.293 93.1006 434.128 90.935 431.456 90.935C428.785 90.935 426.619 93.1006 426.619 95.772C426.619 98.4433 428.785 100.609 431.456 100.609Z" stroke="black" stroke-opacity="0.16" stroke-width="1.93402"/>
<path d="M431.456 213.068C434.128 213.068 436.293 210.902 436.293 208.231C436.293 205.56 434.128 203.394 431.456 203.394C428.785 203.394 426.619 205.56 426.619 208.231C426.619 210.902 428.785 213.068 431.456 213.068Z" stroke="black" stroke-opacity="0.16" stroke-width="1.93402"/>
<path d="M431.456 348.019C434.128 348.019 436.293 345.853 436.293 343.182C436.293 340.511 434.128 338.345 431.456 338.345C428.785 338.345 426.619 340.511 426.619 343.182C426.619 345.853 428.785 348.019 431.456 348.019Z" stroke="black" stroke-opacity="0.16" stroke-width="1.93402"/>
<path d="M431.456 437.986C434.128 437.986 436.293 435.821 436.293 433.149C436.293 430.478 434.128 428.312 431.456 428.312C428.785 428.312 426.619 430.478 426.619 433.149C426.619 435.821 428.785 437.986 431.456 437.986Z" stroke="black" stroke-opacity="0.16" stroke-width="1.93402"/>
<path d="M431.456 415.494C434.128 415.494 436.293 413.329 436.293 410.657C436.293 407.986 434.128 405.821 431.456 405.821C428.785 405.821 426.619 407.986 426.619 410.657C426.619 413.329 428.785 415.494 431.456 415.494Z" stroke="black" stroke-opacity="0.16" stroke-width="1.93402"/>
<path d="M141.239 449.837L141.239 461.446" stroke="black" stroke-opacity="0.16" stroke-width="1.93402"/>
<path d="M141.058 44.9836L141.058 56.5923" stroke="black" stroke-opacity="0.16" stroke-width="1.93402"/>
<path d="M141.058 157.443L141.058 169.052" stroke="black" stroke-opacity="0.16" stroke-width="1.93402"/>
<path d="M141.058 292.394L141.058 304.003" stroke="black" stroke-opacity="0.16" stroke-width="1.93402"/>
<path d="M141.058 112.459L141.058 124.068" stroke="black" stroke-opacity="0.16" stroke-width="1.93402"/>
<path d="M141.058 247.41L141.058 259.019" stroke="black" stroke-opacity="0.16" stroke-width="1.93402"/>
<path d="M141.058 224.919L141.058 236.527" stroke="black" stroke-opacity="0.16" stroke-width="1.93402"/>
<path d="M141.058 359.869L141.058 371.478" stroke="black" stroke-opacity="0.16" stroke-width="1.93402"/>
<path d="M141.239 382.361L141.239 393.97" stroke="black" stroke-opacity="0.16" stroke-width="1.93402"/>
<path d="M141.24 33.1331C138.568 33.1331 136.403 30.9675 136.403 28.2961C136.403 25.6247 138.568 23.4592 141.24 23.4592C143.911 23.4592 146.077 25.6247 146.077 28.2961C146.077 30.9675 143.911 33.1331 141.24 33.1331Z" stroke="black" stroke-opacity="0.16" stroke-width="1.93402"/>
<path d="M141.24 145.593C138.568 145.593 136.403 143.427 136.403 140.756C136.403 138.084 138.568 135.919 141.24 135.919C143.911 135.919 146.077 138.084 146.077 140.756C146.077 143.427 143.911 145.593 141.24 145.593Z" stroke="black" stroke-opacity="0.16" stroke-width="1.93402"/>
<path d="M141.24 280.543C138.568 280.543 136.403 278.378 136.403 275.707C136.403 273.035 138.568 270.87 141.24 270.87C143.911 270.87 146.077 273.035 146.077 275.707C146.077 278.378 143.911 280.543 141.24 280.543Z" stroke="black" stroke-opacity="0.16" stroke-width="1.93402"/>
<path d="M141.24 78.1168C138.568 78.1168 136.403 75.9512 136.403 73.2798C136.403 70.6085 138.568 68.4429 141.24 68.4429C143.911 68.4429 146.077 70.6085 146.077 73.2798C146.077 75.9512 143.911 78.1168 141.24 78.1168Z" stroke="black" stroke-opacity="0.16" stroke-width="1.93402"/>
<path d="M141.24 190.576C138.568 190.576 136.403 188.411 136.403 185.739C136.403 183.068 138.568 180.902 141.24 180.902C143.911 180.902 146.077 183.068 146.077 185.739C146.077 188.411 143.911 190.576 141.24 190.576Z" stroke="black" stroke-opacity="0.16" stroke-width="1.93402"/>
<path d="M141.24 325.527C138.568 325.527 136.403 323.362 136.403 320.69C136.403 318.019 138.568 315.853 141.24 315.853C143.911 315.853 146.077 318.019 146.077 320.69C146.077 323.362 143.911 325.527 141.24 325.527Z" stroke="black" stroke-opacity="0.16" stroke-width="1.93402"/>
<path d="M141.24 100.609C138.568 100.609 136.403 98.4433 136.403 95.772C136.403 93.1006 138.568 90.935 141.24 90.935C143.911 90.935 146.077 93.1006 146.077 95.772C146.077 98.4433 143.911 100.609 141.24 100.609Z" stroke="black" stroke-opacity="0.16" stroke-width="1.93402"/>
<path d="M141.24 213.068C138.568 213.068 136.403 210.902 136.403 208.231C136.403 205.56 138.568 203.394 141.24 203.394C143.911 203.394 146.077 205.56 146.077 208.231C146.077 210.902 143.911 213.068 141.24 213.068Z" stroke="black" stroke-opacity="0.16" stroke-width="1.93402"/>
<path d="M141.24 348.019C138.568 348.019 136.403 345.853 136.403 343.182C136.403 340.511 138.568 338.345 141.24 338.345C143.911 338.345 146.077 340.511 146.077 343.182C146.077 345.853 143.911 348.019 141.24 348.019Z" stroke="black" stroke-opacity="0.16" stroke-width="1.93402"/>
<path d="M141.24 437.986C138.568 437.986 136.403 435.821 136.403 433.149C136.403 430.478 138.568 428.312 141.24 428.312C143.911 428.312 146.077 430.478 146.077 433.149C146.077 435.821 143.911 437.986 141.24 437.986Z" stroke="black" stroke-opacity="0.16" stroke-width="1.93402"/>
<path d="M141.24 415.494C138.568 415.494 136.403 413.329 136.403 410.657C136.403 407.986 138.568 405.821 141.24 405.821C143.911 405.821 146.077 407.986 146.077 410.657C146.077 413.329 143.911 415.494 141.24 415.494Z" stroke="black" stroke-opacity="0.16" stroke-width="1.93402"/>
</g>
</svg>
