<svg width="16" height="11" viewBox="0 0 16 11" fill="none" xmlns="http://www.w3.org/2000/svg">
<path d="M15.3178 1.72115C15.1379 1.04367 14.6077 0.510104 13.9346 0.329031C12.7146 0 7.82235 0 7.82235 0C7.82235 0 2.93014 0 1.71007 0.329031C1.03697 0.510133 0.506838 1.04367 0.326911 1.72115C0 2.94913 0 5.5112 0 5.5112C0 5.5112 0 8.07326 0.326911 9.30124C0.506838 9.97873 1.03697 10.4901 1.71007 10.6711C2.93014 11.0002 7.82235 11.0002 7.82235 11.0002C7.82235 11.0002 12.7146 11.0002 13.9346 10.6711C14.6077 10.4901 15.1379 9.97873 15.3178 9.30124C15.6447 8.07326 15.6447 5.5112 15.6447 5.5112C15.6447 5.5112 15.6447 2.94913 15.3178 1.72115ZM6.22231 7.83736V3.18504L10.3113 5.51126L6.22231 7.83736Z" fill="white"/>
</svg>
