<svg width="24" height="24" viewBox="0 0 24 24" fill="none" xmlns="http://www.w3.org/2000/svg">
<path fill-rule="evenodd" clip-rule="evenodd" d="M4.50001 9.7501C4.49931 8.35493 4.98483 7.00313 5.87305 5.92723C6.76127 4.85133 7.99667 4.1186 9.36672 3.85508C10.7368 3.59156 12.1558 3.81372 13.3798 4.48335C14.6038 5.15298 15.5561 6.22822 16.073 7.5241C16.6467 7.45823 17.2279 7.52574 17.7712 7.72137C18.3145 7.917 18.8053 8.23547 19.2053 8.65193C19.6053 9.0684 19.9037 9.57163 20.0773 10.1224C20.2509 10.6731 20.2949 11.2565 20.206 11.8271C21.0736 12.3146 21.7551 13.0761 22.1439 13.9922C22.5327 14.9083 22.6068 15.9275 22.3546 16.8902C22.1025 17.8529 21.5383 18.7049 20.7504 19.3129C19.9625 19.9208 18.9952 20.2504 18 20.2501H6.75001C5.55568 20.2507 4.39685 19.844 3.4648 19.0972C2.53274 18.3504 1.88318 17.3081 1.62333 16.1423C1.36348 14.9766 1.50886 13.7571 2.03549 12.6852C2.56212 11.6132 3.43851 10.7528 4.52001 10.2461C4.50659 10.0811 4.49992 9.91563 4.50001 9.7501Z" fill="#36424D"/>
</svg>
